<svg xmlns="http://www.w3.org/2000/svg" width="567.79" height="319.792" viewBox="0 0 567.79 319.792">
  <g id="Group_672" data-name="Group 672" transform="translate(-1073.019 541.739)">
    <path id="Path_1374" data-name="Path 1374" d="M1237.48-343.862h13.246l1.419-5h-13.254l3.217-11.5h14.037l1.523-5.11h-21.582l-.166.595-10.5,37.742h7.433Z" fill="#050608"/>
    <path id="Path_1375" data-name="Path 1375" d="M1285.225-340.825a33.067,33.067,0,0,0,2.821-12.4,15.234,15.234,0,0,0-1.872-8.106,8.936,8.936,0,0,0-3.666-3.291,14.193,14.193,0,0,0-6.371-1.289,18.747,18.747,0,0,0-10.506,3.132,25.486,25.486,0,0,0-8.665,11.066,32.853,32.853,0,0,0-2.873,12.6,14.215,14.215,0,0,0,1.99,7.715c1.707,2.644,4.936,4.718,10.317,4.7a18.058,18.058,0,0,0,10.511-3.245h0l0,0,.01-.006h0C1280.615-332.459,1283.367-336.528,1285.225-340.825Zm-13.526,7.51a8.122,8.122,0,0,1-4.5,1.447,5.87,5.87,0,0,1-3.122-.741,4.658,4.658,0,0,1-2-2.952,14.928,14.928,0,0,1-.369-3.775,31.416,31.416,0,0,1,2.327-10.506c1.526-3.871,3.8-7.533,6.578-9.413a8,8,0,0,1,4.571-1.492,6.136,6.136,0,0,1,2.952.609,3.939,3.939,0,0,1,1.9,2.648,17.3,17.3,0,0,1,.4,4.372,33.515,33.515,0,0,1-2.136,9.9C1276.852-339.237,1274.608-335.288,1271.7-333.315Z" fill="#050608"/>
    <path id="Path_1376" data-name="Path 1376" d="M1317.092-363.194l-.007-.005-.005-.005c-2.308-1.623-5.873-2.428-10.208-2.436a72.017,72.017,0,0,0-8.558.551l-.541.064-.145.524-10.341,37.361h7.355l4.39-16.177h1.934a9.763,9.763,0,0,1,2.852.351,3.615,3.615,0,0,1,2.284,1.813,9.432,9.432,0,0,1,.837,4.13v0c.079,2.258.139,4.261.229,5.852.046.8.1,1.487.168,2.067a6.711,6.711,0,0,0,.289,1.427l.2.534h7.384l-.287-1.028a20.4,20.4,0,0,1-.462-3.049c-.148-1.527-.267-3.55-.305-6.063a11.851,11.851,0,0,0-1.4-5.992,6.322,6.322,0,0,0-2.182-2.15,16.372,16.372,0,0,0,6.433-3.859,10.8,10.8,0,0,0,3.37-7.594A7.627,7.627,0,0,0,1317.092-363.194Zm-7.309,12.605a12.053,12.053,0,0,1-7.62,2.489h-1.73l3.416-12.533a17.779,17.779,0,0,1,2.7-.17c2.442,0,4,.54,4.914,1.288a3.618,3.618,0,0,1,1.3,2.966A7.614,7.614,0,0,1,1309.783-350.589Z" fill="#050608"/>
    <path id="Path_1377" data-name="Path 1377" d="M1296.032-310.39c-1.45-.371-3.567-.812-6.31-1.306a75.871,75.871,0,0,0-12.324-1.471,4.58,4.58,0,0,0-1.347.136l-.043.014-.046.015a6.923,6.923,0,0,0-3.318,1.933,4.183,4.183,0,0,0-.967,2.863,2.708,2.708,0,0,0,.323,1.325,3.8,3.8,0,0,0,1.1,1.206l.652.487v23.208a18.89,18.89,0,0,1-2.432,8.233,68.613,68.613,0,0,1-6.929,10.541c-3.792,4.9-6.678,8.208-8.859,10.046a9.077,9.077,0,0,1-2.1,1.387,3.386,3.386,0,0,1-1.352.3,2.528,2.528,0,0,1-.655-.084l-.007,0-.014-.005a1.721,1.721,0,0,1-.883-.588,2,2,0,0,1-.283-.467,3.735,3.735,0,0,1-.218-.7,14.974,14.974,0,0,1-.239-1.67c-.134-1.362-.24-3.3-.326-5.868q-.257-7.689-.257-22.822,0-7.564.064-17v.011a5.275,5.275,0,0,1,.808-2.519,20.272,20.272,0,0,1,1.953-2.759,18.065,18.065,0,0,0,1.576-2.188,3.265,3.265,0,0,0,.452-1.035v0l-.021-.067a1.088,1.088,0,0,0-.219-.261,3.667,3.667,0,0,0-.735-.387,14.843,14.843,0,0,0-1.716-.581,57.019,57.019,0,0,0-5.853-1.233,78.325,78.325,0,0,0-12.664-1.235c-.924,0-1.693.03-2.29.084a6.417,6.417,0,0,0-1.166.186,4.031,4.031,0,0,0-1.979,1.341,3.508,3.508,0,0,0-.6,2.153,7.578,7.578,0,0,0,1.068,3.753l.21.37v.428c0,24.439.849,41.169,2.488,49.928a20.247,20.247,0,0,0,1.762,5.892l.008.012.007.011a2.554,2.554,0,0,0,.671.677,11.52,11.52,0,0,0,1.761,1.067,45.971,45.971,0,0,0,6.544,2.535c5.652,1.806,10.208,2.681,13.556,2.676a9.653,9.653,0,0,0,4.517-1.194,19.148,19.148,0,0,0,4.838-3.8,32.744,32.744,0,0,0,6.379-10.147l1.867-4.673,1.218,4.881a15.078,15.078,0,0,1,.527,3.5h0v.115l-.013.1h0a7.182,7.182,0,0,1-.486,2.037,27.2,27.2,0,0,1-1.261,2.782,5.135,5.135,0,0,0-.621,2.115,1.307,1.307,0,0,0,.121.6l.038.039a2.437,2.437,0,0,0,.4.28,10.907,10.907,0,0,0,1.922.824,58.238,58.238,0,0,0,7.676,1.857l-.013,0,.018,0a64.384,64.384,0,0,0,10.294,1.388,5.958,5.958,0,0,0,1.08-.074h0a12.248,12.248,0,0,0,2.641-.769,2.294,2.294,0,0,0,.946-.648l.036-.1v-.007l-.019-.093a2.986,2.986,0,0,0-.126-.384,10.591,10.591,0,0,0-.672-1.338,14.753,14.753,0,0,1-.874-1.72,4.272,4.272,0,0,1-.382-1.607l0-55.681a2.211,2.211,0,0,1,.339-1.139,5.136,5.136,0,0,1,.506-.692,17.805,17.805,0,0,1,1.519-1.524,4.708,4.708,0,0,0,1.283-1.581l.025-.093a1.935,1.935,0,0,0-.607-1.2,3.5,3.5,0,0,0-.326-.137C1297.315-310.032,1296.756-310.2,1296.032-310.39Z" fill="#050608"/>
    <path id="Path_1378" data-name="Path 1378" d="M1363.1-302.436a4.571,4.571,0,0,1,2.511-.963,2.586,2.586,0,0,1,.654.084l.015.005.012,0a1.726,1.726,0,0,1,.884.592,2.1,2.1,0,0,1,.283.47,3.62,3.62,0,0,1,.215.694,15.242,15.242,0,0,1,.238,1.675c.134,1.367.239,3.318.327,5.894q.256,7.725.255,22.923,0,7.516-.062,16.865v-.011a5.3,5.3,0,0,1-.806,2.52,20.327,20.327,0,0,1-1.953,2.757,18.146,18.146,0,0,0-1.575,2.189,3.234,3.234,0,0,0-.454,1.037l.021.068a1.052,1.052,0,0,0,.19.23,4.394,4.394,0,0,0,.727.348,16.346,16.346,0,0,0,1.731.554c1.436.388,3.4.8,5.873,1.208a78.413,78.413,0,0,0,12.664,1.234c.924,0,1.694-.031,2.289-.085a6.144,6.144,0,0,0,1.185-.191,4.146,4.146,0,0,0,1.972-1.317,3.284,3.284,0,0,0,.594-2.052,7.616,7.616,0,0,0-1.069-3.757l-.207-.369v-.424c0-24.435-.853-41.165-2.492-49.927a20.227,20.227,0,0,0-1.762-5.894l-.007-.013-.005-.007a2.658,2.658,0,0,0-.676-.684,11.658,11.658,0,0,0-1.766-1.079,46.355,46.355,0,0,0-6.545-2.58c-5.649-1.846-10.206-2.738-13.546-2.733a9.479,9.479,0,0,0-4.505,1.215,19.227,19.227,0,0,0-4.847,3.9l.007-.008-.006.006v0h0a32.814,32.814,0,0,0-6.384,10.151l-1.487,3.717-1.522-3.7a9.187,9.187,0,0,1-.761-3.492,2.513,2.513,0,0,1,.061-.537c.031-.148.068-.291.114-.443.088-.3.208-.655.362-1.076.308-.838.753-1.952,1.347-3.363v0a6.1,6.1,0,0,0,.582-2.189,1.022,1.022,0,0,0-.066-.413l-.047-.05a2.325,2.325,0,0,0-.4-.292,10.526,10.526,0,0,0-1.908-.85,54.513,54.513,0,0,0-7.661-1.881h-.005a64.385,64.385,0,0,0-10.3-1.389,6.059,6.059,0,0,0-1.077.072l-.009,0a7.1,7.1,0,0,0-2.633.93,2.613,2.613,0,0,0-1.087,1.284l-.017.043-.007.014a.759.759,0,0,0,.082.249,3.479,3.479,0,0,0,.477.717l0,0a9.639,9.639,0,0,1,1.148,1.7,4.088,4.088,0,0,1,.5,1.843l0,55.682a2.193,2.193,0,0,1-.341,1.14,5.225,5.225,0,0,1-.506.691,18.378,18.378,0,0,1-1.518,1.522,4.752,4.752,0,0,0-1.282,1.58l-.024.1a1.326,1.326,0,0,0,.448.969l.02.012a4.03,4.03,0,0,0,.4.174,16.035,16.035,0,0,0,1.679.523c1.471.39,3.6.839,6.339,1.333a76,76,0,0,0,12.325,1.469,4.587,4.587,0,0,0,1.349-.136l.044-.016.042-.013a7.05,7.05,0,0,0,3.328-1.914,3.972,3.972,0,0,0,.958-2.762,2.689,2.689,0,0,0-.324-1.321,3.81,3.81,0,0,0-1.1-1.211l-.648-.487,0-23.206a18.994,18.994,0,0,1,2.494-8.312,71.514,71.514,0,0,1,7.1-10.761q3.153-4.089,5.508-6.686A25.715,25.715,0,0,1,1363.1-302.436Z" fill="#050608"/>
    <path id="Path_1379" data-name="Path 1379" d="M1476.459-307.27a3.381,3.381,0,0,0-.922-1.969h0l0,0-.084-.066a3.316,3.316,0,0,0-.424-.257,13.369,13.369,0,0,0-1.734-.725,64.222,64.222,0,0,0-6.511-1.789,51.9,51.9,0,0,0-10.373-1.631,9.338,9.338,0,0,0-.979.047,2.582,2.582,0,0,0-1.2.4,2.533,2.533,0,0,0-.81.953q-1.02,1.944-1.961,3.946l-.774,1.645-1.548-.954q-2.7-1.662-5.386-3.207l0,0,.01.006a10.43,10.43,0,0,0-4.952-1.587,5.722,5.722,0,0,0-1.364.191l-.019.005-.011,0c-8.027,1.841-14.434,6.26-19.466,13.474l0,.006-.006.01a38.436,38.436,0,0,0-7.2,22.883v.006a36.614,36.614,0,0,0,4.077,17.638,34.2,34.2,0,0,0,12.236,12.709c3.523,2.123,7.939,3.23,13.358,3.232a4.8,4.8,0,0,0,2.759-.918l.045-.032.05-.029a16.125,16.125,0,0,0,3.022-2.5h0c1.695-1.746,2.692-2.771,3.034-3.114l2.772-2.772v3.92c0,2.984-.08,5.525-.243,7.641a28.387,28.387,0,0,1-.772,5.116v0a11.519,11.519,0,0,1-3.313,5.855,8.72,8.72,0,0,1-5.923,2.088c-.3,0-.6-.012-.912-.035h.009a11.755,11.755,0,0,1-7.381-3.183q-2.675-2.477-5.19-4.835a17.722,17.722,0,0,0-6.27-2.314,38.165,38.165,0,0,0-8.032-1.039,9.644,9.644,0,0,0-1.607.092,14.557,14.557,0,0,0-2.633.791,3.132,3.132,0,0,0-.811.477,1.679,1.679,0,0,0,.233.543,4.343,4.343,0,0,0,.888.956l2.981,2.236.056.041.053.044a76.979,76.979,0,0,0,7.465,6.077l.022.015.023.015a30.716,30.716,0,0,0,17.918,5.22,58.634,58.634,0,0,0,16.152-2.571h.006c6.308-1.815,10.869-4.7,13.887-8.621s4.567-8.958,4.572-15.324l0-52.448a4.544,4.544,0,0,1,.407-1.77,10.909,10.909,0,0,1,.981-1.765l.032-.049.036-.045c.461-.6.829-1.081,1.1-1.444.238-.316.4-.547.47-.649l.018-.035A1.3,1.3,0,0,0,1476.459-307.27Zm-25.349,31.034h0c-1.326,8.715-5.32,16.916-11.868,24.523l-1.538,1.788L1436.582-252c-3.162-5.855-4.663-13.578-4.666-23.163,0-5.531,1.708-11.517,5.01-17.982a40.465,40.465,0,0,1,3.263-5.458,12.206,12.206,0,0,1,3.246-3.241,4.814,4.814,0,0,1,2.523-.778,3.8,3.8,0,0,1,1.075.15h.005a5.645,5.645,0,0,1,2.567,1.575,8.206,8.206,0,0,1,1.644,2.725,23.252,23.252,0,0,1,1.156,8.158A93.5,93.5,0,0,1,1451.11-276.236Z" fill="#050608"/>
    <path id="Path_1380" data-name="Path 1380" d="M1554.746-263.862a48.5,48.5,0,0,0-5.747-1.963c-2.222-.64-4.106-1.113-5.629-1.425a21.864,21.864,0,0,0-2.954-.432,46.88,46.88,0,0,0-2.507,6.285l-.019.061-.024.061c-.843,2.051-2.647,4.082-5.392,6.49h0a21.815,21.815,0,0,1-4.345,3.177,9.044,9.044,0,0,1-4.2,1.179l-.247-.005h-.017a3.841,3.841,0,0,1-2.061-.764,6.815,6.815,0,0,1-1.545-1.631,21.717,21.717,0,0,1-2.481-5.282,34.725,34.725,0,0,1-2.046-11.376c0-.527.014-1.055.045-1.577l.08-1.492,1.495-.043a161.052,161.052,0,0,0,32.747-4.287,8.06,8.06,0,0,0,1.908-3.372,21.762,21.762,0,0,0,.8-6.395v-.011a40.359,40.359,0,0,0-1.537-10.823l-.008-.03-.006-.029a27.142,27.142,0,0,0-1.236-4.056,4.145,4.145,0,0,0-.873-1.484l-.008-.006-.01-.008a41.029,41.029,0,0,0-13.674-6.553h.005a40.6,40.6,0,0,0-10.972-1.857c-.173,0-.343,0-.511.006h-.011a23.72,23.72,0,0,0-11.6,3.109,29.677,29.677,0,0,0-9.453,9.01l0,0,0,.007a43.186,43.186,0,0,0-7.843,25.647,38.9,38.9,0,0,0,2.212,13.621,26.962,26.962,0,0,0,6.556,10.119l.008.008.009.01a15.819,15.819,0,0,0,4.7,2.895,60.3,60.3,0,0,0,8.623,2.909l.014,0,.011,0c6.618,1.895,11.935,2.814,15.84,2.812a7.529,7.529,0,0,0,2.282-.249c4.989-2.1,10.239-6.2,15.65-12.366,3.178-3.662,5.137-6.434,5.787-7.957a3.411,3.411,0,0,0,.252-.771,3.36,3.36,0,0,0-.485-.359A12.293,12.293,0,0,0,1554.746-263.862Zm-39.8-17.263c.576-4.422,2.6-8.933,5.962-13.559a37.624,37.624,0,0,1,3.4-4.125,12.232,12.232,0,0,1,3.106-2.44,4.885,4.885,0,0,1,2.207-.58l.331.014.168.014.162.049a2.072,2.072,0,0,1,.915.587,2.614,2.614,0,0,1,.434.666,5.227,5.227,0,0,1,.378,1.318,23.072,23.072,0,0,1,.224,3.657,52.075,52.075,0,0,1-.375,6.838,14.44,14.44,0,0,1-1.242,4.593,4.588,4.588,0,0,1-1.763,1.958l-.008,0c-3.2,1.774-7.277,2.669-12.231,2.837l-1.911.066Z" fill="#050608"/>
    <path id="Path_1381" data-name="Path 1381" d="M1600.683-249.089a12.267,12.267,0,0,1-.438-1.247l.005.016-.053-.266-.019-.167-.022-.351c-.012-.266-.023-.611-.033-1.054-.02-.885-.039-2.14-.052-3.781q-.041-4.923-.041-14.444V-271l.409-.462q17.24-19.513,27.293-31.009l.222-.253.3-.145q1.763-.837,3.681-1.561a2.628,2.628,0,0,0,.844-.606c.111-.152.1-.168.111-.262l-.051-.262a2.286,2.286,0,0,0-.471-.7,9.305,9.305,0,0,0-1.358-1.2,35.892,35.892,0,0,0-5.338-3.139c-4.112-2.071-7.263-3.019-9.1-3a4.668,4.668,0,0,0-.648.041,2.341,2.341,0,0,0-.723.331,9.709,9.709,0,0,0-1.428,1.137,38.919,38.919,0,0,0-4.094,4.692h0q-3.682,5.161-7.525,10.325l-2.925,3.931v-10.986l.134-.309q.975-2.249,1.514-3.6c.328-.815.527-1.4.581-1.6a.626.626,0,0,0-.032-.174,1.679,1.679,0,0,0-.4-.32,7.772,7.772,0,0,0-1.24-.609,31.047,31.047,0,0,0-4.633-1.344,52.337,52.337,0,0,0-11.382-1.337,23.95,23.95,0,0,0-4.3.328,4.809,4.809,0,0,0-2.506,1.177,2.528,2.528,0,0,0-.658,1.8c.014.065.032.146.059.255.068.295.178.733.322,1.307.291,1.147.728,2.842,1.315,5.073l.053.2v47.629a10.474,10.474,0,0,1-1.466,4.713v0a15.7,15.7,0,0,0-.868,1.861,2.954,2.954,0,0,0-.219.847,1.471,1.471,0,0,0,.3.856,4.636,4.636,0,0,0,1.289,1.171,22.45,22.45,0,0,0,6.459,2.507l.015,0,.012,0a49.028,49.028,0,0,0,12.978,1.976,13.856,13.856,0,0,0,4.265-.512l.022-.007.024-.008a2.733,2.733,0,0,0,1.289-.714,1.165,1.165,0,0,0,.279-.846,9.381,9.381,0,0,0-.909-3.258C1601.168-247.884,1600.891-248.558,1600.683-249.089Z" fill="#050608"/>
    <path id="Path_1382" data-name="Path 1382" d="M1298.184-247.855v-.037l0-.009-.309.046Z" fill="#050608"/>
    <path id="Path_1383" data-name="Path 1383" d="M1281.43-239.309l-.01,0-.012,0Z" fill="#050608"/>
    <path id="Path_1384" data-name="Path 1384" d="M1297.13-242.707h-.12v.008Z" fill="#050608"/>
    <path id="Path_1385" data-name="Path 1385" d="M1297.922-309.854c.031.033.047.06.076.092l.036.018.028.016.114-.192.392-.521-.63.6,1.172-1.123Z" fill="#050608"/>
    <path id="Path_1386" data-name="Path 1386" d="M1271.744-245.345l.244-.121,0-.009-.005-.009-.007-.02-.014-.014Z" fill="#050608"/>
    <path id="Path_1387" data-name="Path 1387" d="M1293.386-241.188h0l-.01,0Z" fill="#050608"/>
    <path id="Path_1388" data-name="Path 1388" d="M1319.522-251.328h.977l-.867-.513a1.348,1.348,0,0,1-.11.149Z" fill="#050608"/>
    <path id="Path_1389" data-name="Path 1389" d="M1364.471-300.967a5.812,5.812,0,0,1,.139.8c.022.177.044.382.066.6.091-.069.186-.143.268-.2a3.6,3.6,0,0,1,.6-.348l.12-.043-.007-.022-.046-.346v-.326l-.18.673.417-1.57-.442,1.562.406-1.435-.265.213-1.059.473.517-.231Z" fill="#050608"/>
    <path id="Path_1390" data-name="Path 1390" d="M1348.632-310.824l0,0,0-.01Z" fill="#050608"/>
    <path id="Path_1391" data-name="Path 1391" d="M1348.635-310.818v0h0Z" fill="#050608"/>
    <path id="Path_1392" data-name="Path 1392" d="M1318.611-308.492l-.009-.012h0Z" fill="#050608"/>
    <path id="Path_1393" data-name="Path 1393" d="M1320.465-311.534l.084.036.012-.026,0-.01Z" fill="#050608"/>
    <path id="Path_1394" data-name="Path 1394" d="M1319.208-244.917l.375-.371-.005-.005c-.013-.014-.019-.024-.032-.037l-.033-.021Z" fill="#050608"/>
    <path id="Path_1395" data-name="Path 1395" d="M1345.871-309.514l-.174.082,0,.007,0,.005,0,.012.009.01Z" fill="#050608"/>
    <path id="Path_1396" data-name="Path 1396" d="M1454.813-224.519h0Z" fill="#050608"/>
    <path id="Path_1397" data-name="Path 1397" d="M1475.728-309.412l-.2.159.007.008,0,0,.005,0Z" fill="#050608"/>
    <path id="Path_1398" data-name="Path 1398" d="M1476.14-305.941h1.588l-1.526-.441,1.231.355-1.107-.657a.049.049,0,0,1-.008.018l-.024.033-.154.307Z" fill="#050608"/>
    <path id="Path_1399" data-name="Path 1399" d="M1500.061-301.247l0,0v0Z" fill="#050608"/>
    <path id="Path_1400" data-name="Path 1400" d="M1531.409-256.011l1.064,1.225.028-.024Z" fill="#050608"/>
    <path id="Path_1401" data-name="Path 1401" d="M1603.411-251.078c-.011-.034-.02-.065-.023-.076l0-.017-1.154.315L1603.3-251l.121-.012v-.007C1603.415-251.029,1603.413-251.049,1603.411-251.078Z" fill="#050608"/>
    <path id="Path_1402" data-name="Path 1402" d="M1576.28-310.233l-1.273.216h1.289c0-.038.007-.066.008-.1s-.011-.051-.014-.067Z" fill="#050608"/>
    <path id="Path_1403" data-name="Path 1403" d="M1229.361-419.817l32.762,8.317,18.172-71.58-31-7.869-14.809,10.507-7.963-16.287-31.041-7.881-13.414,52.846-31.66-18.6-.01.018-.891-1.052-.37.314,2.746-8.158a14.613,14.613,0,0,0,2.252.98,15.02,15.02,0,0,0,4.74.759,17.626,17.626,0,0,0,7.236-1.63,26.3,26.3,0,0,0,9.312-7.377,36.65,36.65,0,0,0,6.4-11.769h0a37.178,37.178,0,0,0,1.932-11.643,27.1,27.1,0,0,0-3.019-12.932,19.074,19.074,0,0,0-1.488-2.311l11.453-2.944-1.617-6.292-14.182,3.646-2.888-10.981-29.684,7.809,4.37,16.606a38.492,38.492,0,0,0-2.824,6.475,37.168,37.168,0,0,0-1.93,11.642,27.119,27.119,0,0,0,3.018,12.932,19.127,19.127,0,0,0,1.678,2.579l-.1-.034-17.765,52.777.064.022,13.981,36.386-28.666,19.574,3.664,5.366,32.49-22.186.462-.177-.042-.109.206-.141-.6-.872-11.619-30.234,23.768,15.2,6.749,36.5,6.388-1.182-7.235-39.132.054-.084-.079-.051-.031-.167-.179.033L1136.2-432.646l10.7-31.785,33.456,39.5,4.957-4.2-2.019-2.384,26.784,6.8,8.007-31.545,6.754,13.821,12.529-8.926Zm-61.182-68.453a17.933,17.933,0,0,1-4.732,3.21,11.15,11.15,0,0,1-4.569,1.058,8.527,8.527,0,0,1-2.7-.43,9.924,9.924,0,0,1-5.514-4.952,20.7,20.7,0,0,1-2.226-9.823,30.665,30.665,0,0,1,1.6-9.6,30.055,30.055,0,0,1,5.5-9.968l16.715-4.4a11.494,11.494,0,0,1,2.776,3.424,20.7,20.7,0,0,1,2.227,9.822,30.7,30.7,0,0,1-1.6,9.6A28.766,28.766,0,0,1,1168.179-488.27Zm12.228,43.063-2.01,7.915L1163.062-455.4Z" fill="#050608"/>
    <path id="Path_1404" data-name="Path 1404" d="M1277.134-435.318a36.964,36.964,0,0,0,5.083,18.646,35.218,35.218,0,0,0,22.69,17.226,38.163,38.163,0,0,0,9.412,1.216,35.312,35.312,0,0,0,18.79-5.523,37.465,37.465,0,0,0,17.055-23.543,41.1,41.1,0,0,0,1.313-10.121,36.755,36.755,0,0,0-5.1-18.62,35.337,35.337,0,0,0-22.742-17.188,38.1,38.1,0,0,0-9.394-1.214,35.339,35.339,0,0,0-18.75,5.484,37.257,37.257,0,0,0-17.036,23.455A41.327,41.327,0,0,0,1277.134-435.318Zm35.078-7.9a4.656,4.656,0,0,1,2.608-.8,5.465,5.465,0,0,1,1.358.178,4.771,4.771,0,0,1,3.228,2.452,5.459,5.459,0,0,1,.67,2.657,7.259,7.259,0,0,1-.236,1.783,5.864,5.864,0,0,1-2.5,3.694,4.64,4.64,0,0,1-2.606.8,5.7,5.7,0,0,1-1.4-.184,5.093,5.093,0,0,1-1.886-.885,4.82,4.82,0,0,1-1.3-1.557,5.439,5.439,0,0,1-.67-2.657,7.257,7.257,0,0,1,.236-1.782A5.865,5.865,0,0,1,1312.212-443.216Z" fill="#050608"/>
    <path id="Path_1405" data-name="Path 1405" d="M1432.142-444.535l-30.671-7.785-11.357,17.935-1.429-21.182-32.851-8.339,5.613,77.617,30.967,7.862,41.908-65.555Z" fill="#050608"/>
    <path id="Path_1406" data-name="Path 1406" d="M1419.8-371.475l58.657,14.887,5.158-20.322-1.574-.4-24.361-6.184,1.34-5.283,18.053,4.583,5.157-20.324-18.051-4.582,1.354-5.327,19.429,4.933-1.8,1.736,4.515,4.671,30.36-29.35,3.009,36.018.158-.013,0,2.793-13.368,36.38-.178-.032-7.294,39.434,6.39,1.179,7-37.856,7.48-20.358.035,21.433h.058l11.326,38.32,6.229-1.839-11.119-37.627-.061-37.888.3-.816-.3-.11-.007-4.337h-.244l-4.368-52.286a16.243,16.243,0,0,0,3.924-1.819,23.149,23.149,0,0,0,8.347-10.116,35.675,35.675,0,0,0,3.038-14.691c0-.269,0-.539-.007-.809a38.566,38.566,0,0,0-.8-7l9.085-14.6-26.06-16.211-6,9.64-12.476-7.667-3.4,5.536,10.078,6.193a23.713,23.713,0,0,0-7.358,9.424,35.623,35.623,0,0,0-3.04,14.689c0,.27,0,.541.009.816h0a34.17,34.17,0,0,0,5.769,18.882,21.487,21.487,0,0,0,6.319,6.053,16.007,16.007,0,0,0,6.1,2.209l.729,8.72-.9.872-25.967,9.416.311.858-52.813-13.406Zm94.085-85.8a17.172,17.172,0,0,1-6.2-7.349,29.571,29.571,0,0,1-2.767-12.167l-3.247.066,3.247-.068c0-.227-.007-.453-.007-.68a27.285,27.285,0,0,1,4.165-15.073,14.641,14.641,0,0,1,4.2-4.244,10.144,10.144,0,0,1,1.635-.824l14.669,9.129a29.983,29.983,0,0,1,2.31,11.144q.008.34.008.677a27.32,27.32,0,0,1-4.165,15.076,14.646,14.646,0,0,1-4.2,4.244,9,9,0,0,1-4.69,1.48h.006l-.176,0A9.141,9.141,0,0,1,1513.884-457.278Zm-19.746,38.912,1.833-7.226,9.027-3.273Z" fill="#050608"/>
    <path id="Path_1407" data-name="Path 1407" d="M1609.179-239.414h5.111v14.65h2.532v-14.65h5.153v-2.155h-12.8Z" fill="#050608"/>
    <path id="Path_1408" data-name="Path 1408" d="M1639.542-241.569h-3.294l-3.3,9.078c-.421,1.226-.8,2.7-1.182,4.265h-.085c-.422-1.561-.759-2.954-1.182-4.221l-3.294-9.122h-3.334l-1.309,16.8h2.448l.634-10.134c.084-1.518.043-2.955.084-4.559h.127c.38,1.561.8,3.209,1.224,4.559l3.42,9.926h1.944l3.506-9.672c.505-1.478,1.011-3.252,1.434-4.813h.127c.041,1.648-.043,3.251.041,4.559l.675,10.134h2.578Z" fill="#050608"/>
    <path id="Path_1409" data-name="Path 1409" d="M1117.455-236.227c-.559-2.065-2.8-33.071-2.388-50.868,0,0,8.417-1.933,26.767-2.76,3.312-.415,8.851.283,12.556.69,5.995.654,14.764.828,14.764.828l.414,10.692s.689,3.312-4.83,5.175a11.454,11.454,0,0,0-6.485,5.932s-1.93,9.108,5.519,34.082c0,0,1.034,2.274,1.759.412s-1.554-16.453-.725-25.663a2.172,2.172,0,0,1,3.416-.31s3.153,24.6,3.207,25.353c.07.966,1.242,1.654,1.551.412s.208-24.317-.1-25.558c.414-1.244,3.829-1.451,3.725.311s1.346,21.211,1.416,23.729c.139,3.141,1.9,2.76,2.105.9s1.033-24.731,1.033-24.731,1.034-2.277,4.036-.413c-.1,4.241.1,21.317.31,23.8,0,0,.035,2.484,1.242,2.484,1.389,0,1.449-3,1.449-3s1.552-13.04,2.172-18.627,1.76-14.176-4.551-18.11-8.072-2.275-8.072-11.9l-.032-5.106a94.678,94.678,0,0,0,12.555-.826c9.175-1.311,19.106-8.765,19.487-14.8,0,0,.482-4.207-1.9-4.623s-28.146,2.176-28.561,2.176.83-40.358,1.554-46.465c.627-5.3,1.722-5.763,2-5.793h-21.456s2.069.725,2.585,8.174,4.036,32.6,3.417,44.7c-8.589.725-29.906,3.934-53.5,3.518,0,0-1.139-10.659-1.034-12s2.585-5.588,6.726-9.624,7.759-11.072,7.555-16.867-2.278-18.523-16.765-18.523-18.421,10.349-18.421,18.109,2.588,13.039,13.038,22.457a9.307,9.307,0,0,1,2.588,7.138c-.207,4.658-.414,9.417-.414,9.417l-30.216.207s-3.932-.311-3.932,2.9c0,3.724.623,15.832.623,15.832s6.318,1.887,17.072-.828a101.117,101.117,0,0,1,16.48-2.379s-.372,36.355-.681,40.8-.311,11.662-1.932,12.766c0,0,.138.826,1.656.826s12.331-.088,12.694-.036c.179.027.929-.052.8-.774A4.55,4.55,0,0,1,1117.455-236.227Z" fill="#050608"/>
  </g>
</svg>
