<?xml version="1.0" standalone="no"?>
<!DOCTYPE svg PUBLIC "-//W3C//DTD SVG 20010904//EN"
 "http://www.w3.org/TR/2001/REC-SVG-20010904/DTD/svg10.dtd">
<svg version="1.0" xmlns="http://www.w3.org/2000/svg"
 width="595.000000pt" height="614.000000pt" viewBox="0 0 595.000000 614.000000"
 preserveAspectRatio="xMidYMid meet">

<g transform="translate(0.000000,614.000000) scale(0.100000,-0.100000)"
fill="#000000" stroke="none">
<path d="M2885 5704 c-81 -48 -153 -81 -260 -119 l-89 -33 1 -78 c1 -72 0 -74
-7 -29 -10 69 -19 95 -33 95 -7 0 -55 -9 -107 -20 -285 -59 -597 -19 -895 114
-32 15 -66 25 -75 24 -8 -2 -22 4 -30 13 -8 10 -26 20 -38 24 -27 8 6 41 -572
-557 -205 -213 -377 -393 -382 -401 -5 -10 15 -46 67 -117 41 -56 95 -140 121
-188 26 -48 50 -89 54 -92 13 -11 121 -330 136 -405 19 -96 35 -306 24 -320
-4 -5 -11 -28 -15 -50 -4 -22 -18 -71 -31 -110 -14 -39 -22 -80 -19 -93 8 -33
-5 -96 -17 -84 -7 7 -7 21 0 41 16 46 -3 37 -22 -10 -9 -22 -58 -133 -110
-247 -78 -173 -92 -213 -89 -244 4 -25 1 -38 -7 -38 -7 0 -9 8 -5 20 3 11 2
20 -2 20 -5 0 -29 -53 -53 -117 -34 -94 -44 -133 -46 -190 -2 -76 -11 -105
-24 -83 -25 40 -45 -305 -26 -435 l9 -60 13 30 c12 27 13 22 8 -50 -6 -71 -3
-91 25 -180 17 -55 40 -115 51 -133 11 -18 20 -41 20 -52 0 -11 18 -57 41
-102 30 -60 43 -78 50 -67 5 8 6 27 3 42 -8 37 4 119 17 112 5 -4 9 -24 9 -47
0 -31 7 -49 30 -75 38 -43 39 -66 1 -29 l-28 27 -6 -43 c-5 -37 -2 -50 28 -94
37 -56 185 -224 197 -224 5 0 8 39 8 87 0 47 3 83 7 79 4 -3 6 -48 6 -99 -2
-87 -1 -90 10 -47 l11 45 6 -54 c5 -47 11 -58 45 -88 l40 -35 5 74 c7 87 21
70 17 -21 l-2 -64 55 -30 c129 -70 144 -77 166 -77 12 0 24 -4 26 -9 7 -19
227 -72 339 -81 63 -6 124 -13 136 -15 12 -3 28 2 36 10 13 13 16 13 27 0 7
-9 29 -15 51 -15 l39 0 0 93 0 94 -98 6 c-174 12 -162 15 -164 -45 l-1 -53 -6
55 -6 54 -70 12 c-82 15 -235 58 -275 79 -46 24 -47 22 -24 -67 4 -18 2 -28
-5 -28 -6 0 -11 7 -11 15 0 8 -4 15 -10 15 -5 0 -10 21 -10 48 0 46 -1 48 -47
72 -70 36 -126 83 -235 195 l-98 100 0 -68 c0 -46 -3 -66 -11 -62 -6 4 -8 22
-4 45 4 24 2 41 -5 45 -6 4 -10 26 -9 48 2 34 -6 56 -38 109 -22 37 -55 103
-73 148 -32 77 -48 88 -51 35 -1 -11 -5 -5 -9 14 -5 19 -5 44 0 56 5 13 1 51
-11 101 -35 147 -52 292 -45 392 13 191 47 314 152 559 41 95 74 178 74 186 0
32 35 47 108 47 59 0 71 3 75 18 4 15 5 16 6 0 1 -15 19 -17 174 -20 94 -2
182 0 193 4 12 3 25 3 30 0 5 -4 75 -6 156 -4 l147 3 7 35 c8 43 30 39 26 -4
-3 -29 -1 -32 23 -32 15 0 24 4 20 10 -3 6 -1 10 4 10 6 0 11 -4 11 -10 0 -5
24 -10 54 -10 52 0 55 1 58 28 4 25 5 25 13 7 11 -26 25 -35 54 -35 20 0 22 4
17 26 -4 14 -3 42 1 62 8 36 8 35 13 -23 l5 -60 48 -3 c28 -2 47 1 47 8 0 7 6
6 19 -2 15 -9 23 -9 36 2 14 12 18 12 25 0 15 -24 24 15 11 50 -7 21 -7 39 0
58 16 41 28 9 22 -58 -5 -53 -4 -57 18 -63 29 -8 48 8 31 25 -14 14 -16 28 -4
28 5 0 15 -11 22 -25 12 -23 19 -25 77 -25 58 0 63 2 63 22 l0 22 16 -22 c14
-20 24 -22 100 -22 59 0 84 4 84 12 0 9 3 9 12 0 7 -7 27 -12 46 -12 26 0 33
3 28 15 -3 8 -1 15 5 15 5 0 12 -7 15 -15 5 -13 44 -15 264 -15 197 0 260 3
263 13 4 9 6 9 6 0 1 -17 97 -17 105 0 5 10 7 10 12 0 4 -10 45 -13 151 -13
136 0 145 1 141 18 -4 15 -1 18 18 14 13 -2 24 -11 24 -18 0 -10 15 -14 59
-14 54 0 60 2 63 23 3 25 23 21 22 -5 0 -16 10 -18 84 -18 65 0 90 4 104 17
17 15 18 15 18 0 0 -14 10 -17 55 -17 l55 0 0 41 c0 26 4 38 11 33 6 -4 8 -20
4 -40 l-6 -34 40 2 c24 1 42 7 45 15 3 8 10 11 16 8 6 -4 8 -11 4 -16 -3 -6
47 -9 130 -8 124 1 154 7 126 24 -19 11 -10 20 22 22 24 2 29 0 20 -9 -18 -18
-14 -38 8 -38 15 0 20 7 21 28 0 15 4 36 9 47 6 15 9 8 9 -27 l1 -48 64 0 c53
0 65 3 69 18 4 16 5 16 6 0 1 -11 9 -18 21 -18 10 0 24 8 29 18 10 16 10 16
11 0 0 -15 9 -18 50 -18 28 0 50 3 50 6 0 4 -10 24 -22 45 -12 21 -18 42 -15
46 8 7 48 -31 46 -44 -1 -4 2 -18 6 -30 7 -21 14 -23 76 -23 38 0 69 4 69 9 0
4 -9 20 -20 34 -24 30 -25 37 -6 37 8 0 30 -18 49 -40 22 -26 42 -40 58 -40
14 0 30 -5 37 -12 9 -9 12 -9 12 0 0 7 5 12 11 12 7 0 9 -12 5 -35 -5 -25 -1
-46 15 -77 20 -40 22 -41 36 -22 14 17 15 16 9 -23 -8 -54 10 -99 32 -80 13
10 15 7 9 -24 -3 -20 -2 -41 3 -45 10 -11 91 -260 96 -294 17 -128 24 -249 19
-320 -20 -251 -99 -488 -229 -684 -44 -67 -53 -87 -50 -116 4 -34 4 -34 -7 -8
l-10 27 -61 -65 c-122 -130 -287 -235 -437 -277 l-76 -22 -5 -95 c-3 -52 -5
-96 -4 -98 1 -2 52 10 113 27 122 33 341 140 341 167 0 8 4 13 9 9 16 -9 154
109 229 195 66 76 70 83 61 112 -11 38 -4 48 15 22 8 -10 16 -17 18 -14 3 3
23 34 45 70 66 106 103 187 103 224 0 26 4 34 13 30 14 -5 30 38 71 186 52
187 64 459 26 640 -39 191 -139 460 -170 460 -21 0 -40 46 -40 96 0 60 -27 86
-49 47 -5 -10 -12 -15 -16 -11 -9 8 -9 67 0 99 5 18 -2 43 -24 88 -17 35 -29
68 -28 73 1 6 -3 12 -10 15 -6 2 -13 -6 -16 -19 -3 -14 -4 -9 -4 12 1 46 -67
254 -71 220 -2 -14 -7 -29 -11 -33 -5 -4 -8 81 -7 191 1 185 0 198 -16 194
-14 -3 -18 2 -18 20 0 21 4 24 23 21 22 -4 25 0 37 56 7 33 10 67 7 75 -4 9 0
19 7 23 7 5 21 33 31 63 10 30 31 89 47 130 17 41 31 94 33 118 3 42 15 73 15
37 0 -24 24 -4 40 35 10 24 9 35 -4 61 -18 36 -23 76 -6 49 7 -11 11 -9 20 14
6 16 8 37 5 47 -4 10 -2 27 4 36 9 15 10 11 11 -19 0 -20 3 -43 6 -51 3 -8 -2
-21 -10 -30 -18 -17 -21 -43 -7 -52 15 -9 41 36 41 72 0 25 5 32 22 35 22 3
91 82 108 123 10 25 -12 52 -58 72 -18 7 -30 18 -26 24 3 6 -2 19 -12 30 -17
19 -19 19 -31 3 -12 -16 -13 -15 -13 10 0 20 -18 47 -62 97 -67 73 -100 87
-112 47 l-7 -23 -10 24 c-5 13 -7 38 -4 55 5 28 0 37 -48 85 -30 29 -59 51
-65 47 -5 -3 -12 7 -15 22 -3 15 -15 33 -26 40 -19 11 -21 10 -21 -8 0 -11 5
-28 11 -38 7 -11 8 -29 2 -51 -11 -44 -33 -53 -34 -14 0 25 -1 26 -9 8 -5 -11
-9 -98 -9 -192 -1 -156 1 -175 18 -192 14 -14 19 -39 24 -107 4 -62 3 -77 -3
-49 -5 22 -9 61 -9 88 -1 26 -4 47 -7 47 -15 0 -44 -22 -44 -35 0 -7 -4 -15
-10 -17 -5 -1 -13 -41 -17 -88 -4 -47 -9 -76 -11 -65 -2 11 -10 24 -18 28 -8
4 -14 22 -14 40 0 18 -5 39 -10 47 -8 12 -10 11 -10 -7 0 -14 -6 -23 -15 -23
-11 0 -15 12 -15 50 0 44 -3 52 -24 60 -28 10 -45 65 -27 83 8 8 11 3 12 -18
1 -30 1 -30 9 -5 12 38 11 213 -1 249 -13 36 -53 61 -99 61 -59 0 -109 -75
-81 -119 8 -12 13 -12 24 -3 12 10 15 4 21 -38 4 -31 3 -57 -4 -68 -9 -14 -10
-10 -6 20 3 23 0 41 -8 47 -20 17 -24 5 -15 -52 12 -76 19 -98 28 -93 4 3 8
-14 9 -36 3 -78 101 -250 167 -295 43 -29 45 -29 46 5 0 26 1 26 13 -7 10 -27
14 -31 19 -18 10 26 37 21 37 -7 0 -14 4 -36 10 -50 5 -14 5 -28 0 -31 -4 -3
-11 8 -15 25 -11 51 -23 33 -28 -42 -4 -60 0 -85 20 -143 14 -38 34 -99 45
-135 11 -36 25 -69 31 -75 7 -7 8 -5 4 6 -3 9 -2 21 3 28 13 21 22 -67 9 -91
-8 -15 -9 -35 -1 -72 19 -89 24 -166 13 -166 -6 0 -11 16 -11 35 0 46 -16 45
-35 -2 -14 -32 -14 -45 -4 -81 8 -30 9 -46 1 -54 -16 -16 -34 2 -29 28 5 30
-8 40 -29 23 -12 -10 -14 -23 -9 -57 7 -49 -9 -52 -18 -4 l-6 29 -53 -18 c-29
-10 -71 -18 -94 -19 -22 0 -45 -5 -52 -12 -9 -9 -12 -9 -12 0 0 7 -14 12 -31
12 -24 0 -32 -5 -37 -22 -6 -23 -6 -23 -12 2 -8 33 -40 40 -40 8 -1 -20 -2
-21 -11 -6 -15 27 -45 39 -71 29 -17 -6 -33 -4 -58 9 l-34 17 0 214 c-1 118
-5 222 -9 231 -7 13 -3 19 16 23 54 14 70 47 76 153 l6 97 8 -74 c11 -94 32
-148 66 -165 l26 -14 0 -169 c0 -189 5 -206 62 -222 40 -11 48 -8 56 24 4 18
5 18 6 -2 1 -29 13 -29 48 1 26 22 28 29 27 93 -1 37 -7 95 -15 128 l-13 60
-8 -55 c-13 -88 -17 -82 -15 26 2 99 2 101 -40 185 -49 99 -117 183 -144 176
-11 -3 -19 2 -22 14 -6 22 9 36 16 17 3 -7 6 -1 6 14 1 20 -6 30 -26 40 -24
11 -29 21 -34 68 -3 31 -11 64 -16 75 -6 11 -27 67 -48 125 -20 58 -46 119
-56 136 -23 38 -24 51 -4 34 13 -11 15 -6 15 39 0 39 -5 55 -20 68 -18 16 -20
28 -18 148 l2 130 3 -115 c4 -125 9 -155 22 -130 5 8 11 31 15 51 13 71 130
169 204 169 20 0 22 5 24 68 l2 67 3 -62 c4 -70 5 -70 113 -75 l55 -2 6 49 6
50 1 -51 c2 -47 4 -52 28 -57 14 -2 39 0 54 6 24 9 32 8 48 -6 10 -9 28 -17
40 -17 20 0 22 5 22 56 0 55 0 56 -76 139 -42 46 -82 82 -92 81 -10 0 -18 7
-20 20 -2 12 -52 69 -112 128 l-108 107 -39 -16 c-203 -86 -371 -146 -448
-160 -56 -10 -95 -22 -102 -32 -9 -11 -13 -12 -13 -4 0 7 -10 11 -26 9 -24 -3
-27 -8 -30 -48 -2 -25 -6 -71 -9 -102 -3 -31 -3 -80 1 -107 l7 -51 57 0 c90 0
86 9 130 -352 39 -317 45 -352 74 -381 14 -14 15 -20 4 -37 -11 -17 -10 -25 3
-49 13 -23 14 -32 4 -50 -15 -28 -10 -245 6 -304 7 -23 11 -56 10 -73 -4 -48
19 -238 30 -248 14 -15 31 7 35 45 2 18 8 35 14 39 5 3 11 35 13 70 3 63 4 63
5 -15 0 -44 1 -88 1 -97 1 -10 11 -27 24 -39 14 -14 18 -23 10 -26 -7 -3 -10
-15 -7 -31 4 -24 0 -29 -36 -46 -32 -14 -54 -17 -98 -12 -31 3 -62 3 -67 -2
-6 -4 -11 -40 -11 -80 1 -42 -3 -71 -9 -70 -6 2 -10 32 -10 68 0 84 -5 91 -51
77 -33 -10 -34 -12 -18 -24 11 -8 18 -27 18 -50 1 -21 10 -51 20 -66 15 -22
16 -31 7 -40 -9 -9 -13 -6 -18 11 -3 14 -11 21 -19 18 -11 -4 -14 7 -14 47 0
34 -7 63 -20 85 -24 38 -40 41 -40 7 0 -16 -6 -25 -15 -25 -8 0 -15 7 -15 15
0 8 -3 15 -7 15 -5 0 -9 39 -10 87 -2 86 -18 131 -29 85 -4 -12 -11 -22 -16
-22 -6 0 -7 9 -3 23 4 12 10 40 15 62 4 22 8 30 9 18 2 -35 12 -52 26 -46 13
5 19 -8 27 -61 2 -11 9 -21 16 -24 15 -5 16 49 2 167 -10 90 -22 115 -51 106
-11 -4 -19 -2 -19 4 0 6 -4 11 -9 11 -6 0 -11 -19 -13 -42 -2 -25 -7 -41 -13
-38 -5 3 -9 22 -7 43 4 43 -13 50 -28 12 -5 -14 -14 -25 -20 -25 -13 0 -13 17
0 25 14 9 12 25 -3 25 -43 0 -68 -103 -36 -144 10 -13 19 -29 19 -35 0 -6 5
-11 10 -11 6 0 10 -18 10 -39 0 -25 5 -41 15 -45 8 -3 15 -10 15 -15 0 -6 -7
-8 -15 -5 -11 5 -15 -1 -15 -24 0 -16 7 -35 15 -42 21 -17 19 -29 -4 -23 -11
3 -35 -3 -55 -12 -19 -9 -40 -14 -46 -10 -6 3 -29 8 -51 10 -34 3 -42 1 -46
-16 -7 -24 -23 -25 -23 -1 -1 16 -1 16 -11 -1 -11 -18 -11 -18 -25 1 -7 10
-27 25 -45 32 -29 12 -30 15 -25 54 4 23 9 60 12 84 7 53 27 51 34 -4 3 -26
10 -39 20 -39 22 0 37 153 22 211 -8 28 -8 53 -2 75 6 19 10 45 10 58 0 19 -3
21 -14 12 -10 -9 -16 -8 -26 4 -8 10 -9 15 -1 15 6 0 13 11 17 25 7 30 34 34
34 4 0 -11 4 -18 9 -15 4 3 12 46 15 95 6 71 4 96 -9 127 -40 94 -49 159 -21
148 23 -9 46 25 46 66 0 21 -4 42 -10 45 -5 3 -10 15 -10 26 0 10 -4 19 -10
19 -5 0 -10 9 -10 19 0 14 5 18 20 14 14 -4 20 -14 20 -34 0 -17 5 -29 13 -29
14 0 23 55 57 352 12 106 15 169 9 195 -11 49 -11 62 1 43 8 -12 13 -11 33 8
21 20 30 21 84 16 l60 -7 1 152 2 151 -75 0 -74 0 -5 -32 c-3 -18 -7 -44 -8
-57 -3 -23 -5 -21 -23 15 -11 21 -23 41 -27 42 -5 2 -8 12 -8 23 0 11 -7 19
-16 19 -25 0 -11 -88 16 -107 11 -8 20 -20 20 -28 0 -12 -4 -12 -27 0 -15 8
-29 12 -31 10 -8 -8 33 -64 55 -74 20 -9 23 -17 21 -58 -1 -35 -2 -40 -5 -16
-4 31 -28 61 -40 50 -3 -4 -1 -13 6 -20 13 -17 4 -50 -13 -44 -6 2 -10 13 -9
23 5 38 -19 114 -44 139 -26 25 -24 29 11 25 17 -1 18 3 11 47 -4 26 -8 49
-10 51 -4 5 -105 19 -105 15 0 -2 7 -18 16 -34 18 -37 14 -45 -16 -29 -17 9
-21 19 -18 41 4 29 3 30 -76 54 -44 13 -81 23 -83 21 -2 -1 -6 -30 -9 -64 -4
-34 -10 -59 -15 -57 -4 3 -9 -1 -12 -7 -2 -7 -8 -10 -12 -6 -5 5 -1 16 8 26
21 23 22 38 2 46 -17 6 -21 36 -4 36 6 0 9 9 7 20 -2 15 -27 31 -93 60 -49 22
-90 40 -91 40 -2 0 -5 -19 -7 -42 l-4 -43 -1 47 c-2 45 -4 49 -44 70 -57 30
-62 29 -70 -12 l-6 -35 0 35 c0 74 -1 74 -87 24z m-1507 -164 c0 -22 -1 -22
-8 5 -4 17 -8 39 -8 50 0 16 2 15 8 -5 4 -14 8 -36 8 -50z m1682 27 c0 -18 -2
-19 -10 -7 -13 20 -13 43 0 35 6 -3 10 -16 10 -28z m-240 14 c0 -6 -4 -13 -10
-16 -5 -3 -10 1 -10 9 0 9 5 16 10 16 6 0 10 -4 10 -9z m1769 -88 c-2 -93 -2
-95 -9 -38 -11 89 -11 135 0 135 6 0 9 -38 9 -97z m-3309 57 c0 -5 -4 -10 -9
-10 -5 0 -14 -12 -19 -27 l-10 -28 -1 26 c-1 24 15 49 31 49 4 0 8 -4 8 -10z
m21 -50 c-3 -11 -7 -8 -11 10 -4 14 -4 32 -1 40 3 11 7 8 11 -10 4 -14 4 -32
1 -40z m180 -136 l-10 -49 4 55 c3 30 6 78 7 105 l2 50 3 -56 c2 -31 -1 -78
-6 -105z m1938 -14 c-1 -91 3 -166 9 -173 10 -13 2 -171 -11 -183 -4 -4 -7 2
-7 14 0 31 -17 36 -24 7 -7 -27 -26 -34 -26 -10 0 8 -7 15 -15 15 -8 0 -15 8
-15 18 -1 16 -1 16 -11 -1 -6 -11 -9 -54 -7 -102 1 -46 0 -81 -4 -78 -5 2 -8
17 -8 33 0 16 -4 31 -9 34 -4 3 -11 -45 -15 -107 -10 -158 -10 -157 -18 -157
-5 0 -8 7 -8 15 0 8 -5 24 -12 35 -10 15 -9 22 5 38 17 19 24 72 9 72 -5 0
-32 -64 -59 -142 -48 -134 -51 -148 -46 -218 6 -107 12 -114 35 -40 l20 64 20
-27 c11 -15 24 -25 29 -21 5 3 10 31 11 62 1 40 3 26 8 -43 3 -55 5 -102 3
-104 -2 -3 -13 5 -26 17 -29 27 -37 28 -37 2 0 -11 -6 -20 -14 -20 -19 0 -40
-61 -25 -71 7 -4 13 -36 14 -76 2 -76 32 -193 49 -193 8 0 12 -21 11 -59 0
-40 5 -65 16 -77 9 -11 14 -26 11 -34 -2 -8 -1 -12 3 -8 12 11 35 -12 35 -34
0 -15 -5 -18 -16 -14 -14 6 -16 1 -10 -36 8 -49 24 -74 39 -59 5 5 10 56 10
113 0 57 2 84 4 61 2 -24 8 -43 13 -43 13 0 17 71 5 102 -10 30 2 53 21 40 7
-5 9 -41 5 -112 -5 -86 -3 -115 12 -160 11 -34 16 -68 12 -88 -5 -29 -9 -128
-14 -329 -1 -60 -2 -63 -25 -63 -19 0 -31 12 -55 53 l-31 52 0 -52 c0 -46 -3
-53 -20 -53 -18 0 -20 7 -20 85 0 84 0 85 25 85 19 0 31 -11 55 -52 l30 -53 0
53 c0 46 2 52 21 52 20 0 21 4 16 44 -6 42 -61 121 -77 111 -3 -2 -6 6 -6 18
1 15 -6 23 -21 25 -20 3 -23 -1 -23 -27 0 -17 -5 -31 -10 -31 -6 0 -9 14 -8
31 3 28 0 31 -30 34 -18 1 -34 -1 -37 -5 -2 -4 -16 -5 -30 -2 -26 5 -59 -14
-49 -29 3 -5 1 -9 -5 -9 -5 0 -13 9 -16 20 -3 11 -11 20 -16 20 -5 0 -12 0
-16 0 -5 0 -8 -4 -8 -9 0 -5 -3 -13 -7 -17 -5 -4 -8 1 -8 12 0 11 -9 25 -20
32 -11 7 -20 23 -20 36 0 13 -7 26 -15 30 -11 4 -13 16 -8 52 5 37 3 46 -8 42
-7 -2 -16 -15 -20 -29 l-6 -24 -8 27 c-10 38 0 61 23 53 18 -5 19 4 24 133 6
140 2 192 -13 192 -13 0 -69 -193 -69 -239 0 -28 -4 -41 -14 -41 -13 0 -53
-126 -43 -136 11 -11 24 5 37 45 14 43 44 58 36 19 -3 -13 -7 -48 -10 -79 -5
-46 -3 -58 10 -63 25 -10 5 -26 -32 -26 -35 0 -74 -15 -85 -33 -4 -5 -16 0
-28 12 -30 30 -60 26 -74 -9 -4 -12 -6 -11 -6 3 -1 14 -6 17 -21 12 -10 -3
-29 0 -42 8 -47 30 -65 30 -76 0 -6 -15 -11 -22 -11 -15 -1 7 -6 10 -11 7 -7
-4 -8 3 -4 21 4 16 7 34 7 41 0 7 7 13 14 13 8 0 11 -4 8 -10 -3 -5 1 -10 9
-10 9 0 18 12 21 28 4 15 10 35 16 44 5 10 9 24 9 33 0 19 31 56 41 49 5 -3 4
-15 -1 -29 -11 -29 15 -59 31 -34 4 8 50 137 100 288 82 247 90 276 78 300
-11 24 -13 24 -17 6 -7 -33 -22 -42 -22 -12 0 15 9 35 20 44 23 20 27 53 6 53
-20 0 -28 28 -15 52 16 29 -3 154 -41 273 -11 33 -32 119 -48 190 -15 72 -32
129 -38 127 -5 -2 -12 7 -16 20 -4 13 -5 2 -2 -24 9 -80 -18 -61 -56 38 -17
47 -30 87 -29 88 26 23 76 36 113 31 l43 -7 9 39 8 38 5 -40 6 -40 81 3 c46 2
98 -1 122 -9 23 -7 42 -13 43 -13 0 -1 6 -44 13 -96 l13 -95 2 70 c1 39 6 77
11 85 7 10 10 -25 10 -107 0 -76 -4 -123 -10 -123 -5 0 -10 7 -10 15 0 8 -4
15 -10 15 -5 0 -10 7 -10 15 0 8 -5 15 -11 15 -6 0 -8 8 -4 19 3 11 1 22 -4
25 -6 4 -8 13 -5 21 8 19 -15 60 -27 48 -7 -7 -4 -44 6 -104 16 -90 25 -122
25 -86 0 10 4 17 10 17 5 0 7 -26 3 -65 -4 -45 -2 -65 5 -65 7 0 9 -11 6 -29
-3 -16 -2 -36 3 -45 7 -13 17 8 41 86 41 130 48 173 33 201 -7 14 -11 54 -9
102 3 71 5 80 23 83 21 3 88 28 118 43 12 7 17 5 17 -6 0 -9 9 -15 25 -15 22
0 25 5 26 38 l2 37 6 -35 c6 -34 7 -35 52 -35 42 0 45 2 41 23 -5 26 8 292 14
292 3 0 4 -72 3 -160z m-2020 84 c12 -9 11 -12 -2 -17 -20 -7 -51 38 -42 61 6
14 9 13 18 -8 7 -14 18 -30 26 -36z m3301 -39 l-7 -60 -2 70 c0 38 3 65 7 60
5 -6 6 -37 2 -70z m-1630 38 c0 -19 -3 -24 -10 -17 -6 6 -8 18 -4 27 9 24 14
21 14 -10z m920 -18 c0 -33 -4 -45 -15 -45 -11 0 -15 12 -15 45 0 33 4 45 15
45 11 0 15 -12 15 -45z m-1513 -17 c-2 -13 -4 -5 -4 17 -1 22 1 32 4 23 2 -10
2 -28 0 -40z m620 -5 c-3 -10 -5 -2 -5 17 0 19 2 27 5 18 2 -10 2 -26 0 -35z
m1400 25 c-3 -8 -6 -5 -6 6 -1 11 2 17 5 13 3 -3 4 -12 1 -19z m-3256 -13 c5
4 9 -14 8 -42 -1 -26 -4 -39 -6 -28 -3 11 -11 24 -19 28 -8 4 -14 22 -14 40 1
27 2 29 11 14 6 -9 14 -15 20 -12z m586 -17 c-3 -7 -5 -2 -5 12 0 14 2 19 5
13 2 -7 2 -19 0 -25z m803 -18 c0 -25 -9 -25 -26 -2 -21 27 -18 45 6 32 11 -6
20 -20 20 -30z m370 19 c0 -11 -4 -17 -10 -14 -5 3 -10 13 -10 21 0 8 5 14 10
14 6 0 10 -9 10 -21z m947 -41 c-2 -13 -4 -3 -4 22 0 25 2 35 4 23 2 -13 2
-33 0 -45z m210 -10 c-2 -13 -4 -3 -4 22 0 25 2 35 4 23 2 -13 2 -33 0 -45z
m340 -20 c-3 -22 -4 -21 -11 4 -5 16 -5 36 0 45 7 16 8 15 11 -4 3 -13 3 -33
0 -45z m-1802 -13 c-4 -31 -9 -54 -12 -51 -3 2 -1 30 2 61 4 31 9 54 12 51 3
-2 1 -30 -2 -61z m1932 28 c-3 -10 -5 -4 -5 12 0 17 2 24 5 18 2 -7 2 -21 0
-30z m-3550 -50 c-2 -16 -4 -3 -4 27 0 30 2 43 4 28 2 -16 2 -40 0 -55z m313
52 c0 -14 -4 -25 -10 -25 -5 0 -10 11 -10 25 0 14 5 25 10 25 6 0 10 -11 10
-25z m2577 -42 c-3 -10 -5 -2 -5 17 0 19 2 27 5 18 2 -10 2 -26 0 -35z m-745
-12 c2 -17 1 -28 -4 -25 -8 5 -12 54 -4 54 2 0 6 -13 8 -29z m1587 -23 c-1
-48 -2 -50 -11 -25 -9 25 -4 77 7 77 3 0 5 -24 4 -52z m-3513 -71 c30 -3 83
-1 119 4 42 7 76 7 99 1 59 -17 76 -7 76 44 0 32 5 46 19 53 15 9 20 7 24 -10
3 -12 10 -18 16 -14 7 4 11 -5 11 -24 0 -17 -4 -31 -10 -31 -5 0 -10 7 -10 15
0 8 -2 15 -4 15 -2 0 -11 3 -20 6 -12 5 -16 0 -16 -18 0 -19 8 -26 46 -37 75
-22 74 -20 74 -217 0 -128 4 -184 14 -208 14 -34 14 -34 -15 -47 -35 -14 -57
-52 -66 -114 -7 -55 -23 -60 -24 -7 l0 37 -13 -48 c-19 -68 -28 -70 -22 -4 2
32 0 57 -5 57 -5 0 -9 5 -9 10 0 6 7 10 15 10 19 0 19 10 -1 38 -23 33 -34 27
-34 -20 -1 -36 -2 -40 -11 -25 -6 11 -9 32 -5 47 3 16 1 30 -5 32 -6 2 -6 14
1 34 6 17 9 91 8 175 l-3 144 -27 3 c-32 4 -32 3 -28 -149 1 -63 -2 -95 -14
-117 -18 -35 -22 -223 -6 -302 35 -172 35 -170 15 -204 -17 -28 -20 -55 -23
-249 -4 -216 -3 -218 18 -224 17 -5 20 -11 15 -34 -5 -23 -3 -28 16 -31 20 -3
25 -12 35 -68 13 -74 8 -89 -38 -118 -29 -18 -42 -19 -108 -12 -41 4 -78 6
-82 4 -16 -10 -111 -14 -122 -5 -6 5 -22 12 -36 16 -32 10 -80 62 -80 86 0 11
-7 22 -15 25 -16 7 -19 60 -6 129 l7 40 6 -30 c9 -43 64 -103 80 -87 19 19 27
14 30 -20 2 -19 9 -34 18 -36 13 -2 15 34 12 284 -2 198 -7 294 -15 308 -11
20 -12 20 -15 -7 -5 -41 -28 -27 -24 14 1 19 7 36 12 37 6 2 15 13 21 24 8 15
7 24 -6 38 -15 16 -15 20 4 51 20 32 21 49 21 330 0 247 -2 299 -15 309 -20
16 -52 4 -58 -23 -15 -61 -18 -190 -7 -258 10 -58 10 -74 0 -77 -7 -3 -26 -17
-43 -32 -25 -22 -31 -36 -35 -84 -5 -66 -23 -70 -28 -7 -2 24 -12 56 -21 72
-16 27 -68 57 -79 46 -10 -10 -24 -81 -24 -124 0 -46 -13 -55 -29 -24 -8 14
-7 22 3 30 8 7 17 39 20 74 3 34 8 86 12 115 4 32 2 58 -5 66 -6 7 -8 16 -4
19 17 18 23 1 23 -68 0 -41 4 -75 9 -75 22 0 31 72 31 241 l0 178 31 17 c21
10 52 15 93 13 33 -1 80 2 103 6 40 7 41 8 32 33 -6 15 -7 38 -3 52 6 21 9 16
17 -31 l9 -56 54 -6z m881 66 c-3 -10 -5 -2 -5 17 0 19 2 27 5 18 2 -10 2 -26
0 -35z m-213 7 c-6 -6 -15 -6 -24 0 -13 9 -13 11 0 20 18 11 39 -5 24 -20z
m1516 2 c0 -15 -2 -15 -10 -2 -13 20 -13 33 0 25 6 -3 10 -14 10 -23z m-372
-14 c-2 -18 -7 -33 -13 -33 -5 0 -11 15 -13 33 -3 24 1 32 13 32 12 0 16 -8
13 -32z m-250 4 c2 -7 -3 -12 -12 -12 -9 0 -16 7 -16 16 0 17 22 14 28 -4z
m-376 -14 c-3 -14 -1 -19 6 -14 6 3 14 1 18 -5 3 -6 1 -15 -6 -19 -9 -6 -10
-19 -1 -59 14 -67 15 -102 1 -81 -7 11 -10 -2 -12 -45 l-2 -60 -6 70 c-5 54
-7 35 -8 -85 -1 -113 2 -166 13 -195 8 -22 14 -65 13 -95 0 -30 -2 -46 -5 -35
-3 11 -9 24 -14 29 -4 5 -6 28 -2 52 5 40 4 42 -15 37 -48 -12 -57 -37 -59
-162 -2 -155 -1 -150 -15 -127 -6 11 -8 39 -5 67 4 35 2 51 -9 59 -8 7 -14 27
-14 46 0 42 -17 87 -31 82 -7 -2 -25 9 -41 25 -24 25 -27 32 -16 45 18 22 18
283 0 305 -21 25 -70 32 -91 13 -10 -9 -23 -16 -29 -16 -17 0 -15 -20 5 -42 9
-10 13 -21 9 -26 -4 -4 -14 2 -22 12 -12 17 -14 -14 -14 -246 0 -242 2 -268
18 -288 32 -39 86 -4 62 40 -18 33 -12 78 12 94 31 22 38 20 38 -8 0 -16 11
-32 32 -47 l31 -23 -6 25 c-3 13 -2 31 3 39 7 11 10 7 15 -16 4 -16 13 -49 21
-73 17 -54 17 -87 0 -48 l-12 27 -24 -32 c-13 -17 -19 -33 -13 -35 6 -2 19
-10 29 -17 18 -14 18 -15 -9 -27 -33 -15 -33 -21 -5 -59 27 -37 17 -65 -36
-100 -26 -19 -36 -32 -36 -52 0 -32 -15 -36 -42 -11 -22 20 -23 52 -1 97 19
40 7 66 -31 66 -45 0 -46 -8 -46 -322 l0 -298 25 -16 c28 -18 98 -15 119 6 13
13 15 301 2 337 -6 19 -2 24 28 37 42 17 58 45 66 109 7 63 24 61 30 -5 7 -67
23 -96 58 -104 41 -10 43 -13 26 -39 -13 -20 -15 -56 -13 -221 l2 -197 -24
-13 c-13 -7 -36 -13 -51 -14 -27 0 -28 -2 -30 -57 l-2 -58 -3 57 c-5 67 -18
76 -93 59 -61 -13 -160 -14 -249 -2 -81 12 -121 6 -121 -16 0 -11 -6 -10 -26
6 -15 12 -34 21 -44 21 -9 0 -24 8 -33 18 -13 14 -14 25 -5 66 7 34 7 51 -1
59 -15 15 -14 27 4 27 8 0 15 9 15 20 0 11 7 20 14 20 11 0 16 -14 18 -47 2
-28 7 -46 13 -43 6 3 10 50 10 112 -1 58 2 105 6 103 3 -3 4 73 1 168 -3 140
-8 180 -23 216 -17 40 -18 46 -4 61 19 21 19 29 -1 51 -14 15 -14 20 -1 46 21
41 38 244 35 435 -3 152 -5 168 -20 168 -14 0 -18 -9 -18 -40 0 -27 -4 -40
-14 -40 -9 0 -17 23 -25 75 -14 98 -14 105 4 105 9 0 30 7 47 16 24 12 41 14
84 6 30 -5 56 -7 58 -5 4 5 137 16 181 15 126 -2 256 -12 274 -21 20 -11 21
-9 21 34 0 25 4 45 9 45 5 0 7 -10 3 -22z m1174 -95 c-11 -11 -19 6 -11 24 8
17 8 17 12 0 3 -10 2 -21 -1 -24z m1429 -58 c4 -26 3 -35 -3 -25 -13 22 -25
87 -13 75 5 -6 12 -28 16 -50z m-1555 -36 c0 -5 -4 -9 -10 -9 -5 0 -10 7 -10
16 0 8 5 12 10 9 6 -3 10 -10 10 -16z m1483 -16 c-6 -15 -23 -18 -23 -4 0 5 3
17 6 26 5 12 9 14 14 4 5 -7 6 -18 3 -26z m-1346 -20 c-3 -10 -5 -2 -5 17 0
19 2 27 5 18 2 -10 2 -26 0 -35z m1091 -4 l-3 -24 -13 23 c-7 12 -10 27 -6 33
10 17 26 -6 22 -32z m-1240 -12 c7 3 12 -4 12 -16 0 -11 9 -25 20 -31 11 -6
20 -17 20 -24 0 -8 10 -16 22 -20 16 -4 20 -8 12 -16 -12 -12 -44 -3 -45 14 0
6 -5 2 -10 -9 -8 -17 -9 -16 -6 8 3 15 0 27 -4 27 -5 0 -9 -15 -9 -34 0 -21
-6 -36 -15 -40 -8 -3 -15 -15 -15 -26 0 -11 -4 -20 -8 -20 -9 0 -32 102 -32
143 0 15 -4 27 -10 27 -5 0 -10 5 -10 10 0 6 7 10 15 10 8 0 15 5 15 12 0 7 6
6 18 -4 9 -9 23 -13 30 -11z m1502 -9 c0 -7 -5 -20 -10 -28 -8 -12 -10 -9 -10
13 0 15 5 27 10 27 6 0 10 -6 10 -12z m230 -32 c0 -8 -4 -18 -10 -21 -5 -3
-10 3 -10 14 0 12 5 21 10 21 6 0 10 -6 10 -14z m-123 -73 c6 -27 12 -57 12
-68 1 -32 -17 2 -25 48 -3 21 -12 41 -20 44 -8 3 -14 17 -14 31 0 25 1 25 17
9 9 -9 23 -38 30 -64z m-1010 35 c-3 -7 -5 -2 -5 12 0 14 2 19 5 13 2 -7 2
-19 0 -25z m938 -1 c0 -26 -20 -25 -23 2 -3 16 1 22 10 19 7 -3 13 -12 13 -21z
m-4219 -33 c-4 -9 -9 -15 -11 -12 -3 3 -3 13 1 22 4 9 9 15 11 12 3 -3 3 -13
-1 -22z m2523 -32 c1 -12 -6 -25 -14 -29 -21 -7 -33 6 -16 16 8 5 11 17 6 30
-9 28 6 52 16 25 4 -10 8 -29 8 -42z m1820 -9 c1 -13 -3 -23 -9 -23 -5 0 -10
21 -9 48 1 38 2 42 9 22 4 -14 8 -35 9 -47z m-1761 -104 c3 -148 -1 -189 -18
-189 -13 0 -13 122 0 175 6 25 6 41 0 43 -6 2 -10 31 -10 64 0 43 3 59 13 56
9 -3 13 -44 15 -149z m1569 94 c-3 -10 -5 -2 -5 17 0 19 2 27 5 18 2 -10 2
-26 0 -35z m-1447 -3 c0 -5 -4 -10 -10 -10 -5 0 -10 5 -10 10 0 6 5 10 10 10
6 0 10 -4 10 -10z m50 -53 c0 -24 -3 -28 -10 -17 -13 20 -13 63 0 55 6 -3 10
-21 10 -38z m1740 -23 c0 -36 -3 -63 -7 -61 -8 5 -5 127 3 127 2 0 4 -30 4
-66z m-4143 4 c-2 -13 -4 -5 -4 17 -1 22 1 32 4 23 2 -10 2 -28 0 -40z m2133
-57 c0 -84 3 -113 15 -125 8 -8 15 -20 15 -27 0 -8 6 -5 13 5 13 18 14 18 21
1 4 -10 1 -25 -7 -34 -8 -9 -17 -23 -20 -31 -4 -12 -6 -11 -12 5 -3 11 -13 33
-22 48 -17 33 -28 267 -12 267 5 0 9 -48 9 -109z m-1459 37 c-9 -20 -10 -18
-10 17 0 31 2 36 9 23 6 -10 7 -25 1 -40z m3307 10 c0 -24 1 -47 2 -53 1 -5 1
-19 0 -30 -1 -11 -8 5 -15 35 -8 32 -10 56 -4 58 5 2 9 10 9 18 0 8 2 14 3 14
2 0 4 -19 5 -42z m52 16 c0 -8 -4 -12 -10 -9 -5 3 -10 10 -10 16 0 5 5 9 10 9
6 0 10 -7 10 -16z m-4403 -26 c-3 -7 -5 -2 -5 12 0 14 2 19 5 13 2 -7 2 -19 0
-25z m4210 10 c-3 -8 -6 -5 -6 6 -1 11 2 17 5 13 3 -3 4 -12 1 -19z m-1513
-19 c3 -17 6 -43 5 -58 0 -23 -1 -24 -8 -6 -13 32 -20 95 -12 95 5 0 11 -14
15 -31z m-155 -66 c-1 -67 -2 -67 -10 -23 -11 63 -11 90 1 90 6 0 9 -28 9 -67z
m281 32 c0 -13 -4 -27 -10 -30 -6 -4 -10 8 -10 30 0 22 4 34 10 30 6 -3 10
-17 10 -30z m1067 -17 c-2 -13 -4 -5 -4 17 -1 22 1 32 4 23 2 -10 2 -28 0 -40z
m375 7 c2 -11 -1 -22 -7 -25 -5 -3 -11 11 -13 30 -4 37 15 33 20 -5z m-4255
-50 c1 -36 -2 -65 -6 -65 -11 0 -23 103 -15 125 11 27 18 7 21 -60z m3933 25
l-7 -45 -2 41 c0 22 2 44 6 47 10 11 11 5 3 -43z m277 -17 c-3 -10 -5 -2 -5
17 0 19 2 27 5 18 2 -10 2 -26 0 -35z m216 7 c4 -17 3 -19 -9 -9 -8 6 -14 18
-14 26 0 20 16 8 23 -17z m-3438 -10 c-5 -8 -11 -8 -17 -2 -6 6 -7 16 -3 22 5
8 11 8 17 2 6 -6 7 -16 3 -22z m721 -13 c17 6 18 -10 3 -39 -9 -17 -13 -18
-20 -7 -5 8 -8 28 -8 44 1 17 3 22 6 13 2 -10 10 -15 19 -11z m1011 -34 c-3
-10 -5 -4 -5 12 0 17 2 24 5 18 2 -7 2 -21 0 -30z m-1721 -31 c-12 -11 -18 7
-10 30 l8 23 4 -23 c2 -13 1 -26 -2 -30z m1464 21 c0 -22 -2 -25 -10 -13 -13
20 -13 40 0 40 6 0 10 -12 10 -27z m1647 -5 c-3 -8 -6 -5 -6 6 -1 11 2 17 5
13 3 -3 4 -12 1 -19z m-1450 -50 c-2 -13 -4 -5 -4 17 -1 22 1 32 4 23 2 -10 2
-28 0 -40z m1340 0 c-2 -13 -4 -5 -4 17 -1 22 1 32 4 23 2 -10 2 -28 0 -40z
m330 -15 c-2 -16 -4 -5 -4 22 0 28 2 40 4 28 2 -13 2 -35 0 -50z m-4390 -40
c-2 -21 -4 -6 -4 32 0 39 2 55 4 38 2 -18 2 -50 0 -70z m2760 0 c-2 -16 -4 -3
-4 27 0 30 2 43 4 28 2 -16 2 -40 0 -55z m1683 32 c0 -17 -2 -17 -10 -5 -5 8
-10 24 -10 35 0 17 2 17 10 5 5 -8 10 -24 10 -35z m-4129 -16 c-4 -13 -7 -49
-5 -79 3 -48 3 -51 -7 -25 -9 29 -6 106 7 126 11 18 15 2 5 -22z m519 -56 c0
-27 0 -27 -20 10 -11 20 -20 42 -20 49 0 6 9 2 20 -10 11 -12 20 -34 20 -49z
m-680 36 c9 -16 7 -44 -7 -117 l-18 -97 -3 70 c-2 53 1 72 12 80 13 10 13 15
0 39 -7 16 -14 32 -14 37 0 17 19 9 30 -12z m2508 -42 c2 -35 0 -47 -11 -47
-9 0 -17 15 -21 38 -9 56 -8 64 12 60 13 -2 18 -15 20 -51z m1836 37 c9 -22
-3 -32 -14 -14 -12 19 -12 30 -1 30 5 0 12 -7 15 -16z m-4107 -26 c-3 -7 -5
-2 -5 12 0 14 2 19 5 13 2 -7 2 -19 0 -25z m2200 -10 c-3 -7 -5 -2 -5 12 0 14
2 19 5 13 2 -7 2 -19 0 -25z m-2357 -35 c0 -18 -4 -33 -10 -33 -5 0 -10 21
-10 48 0 34 3 43 10 32 5 -8 10 -30 10 -47z m4058 16 c-3 -8 -7 -3 -11 10 -4
17 -3 21 5 13 5 -5 8 -16 6 -23z m-4231 -36 c-3 -10 -5 -2 -5 17 0 19 2 27 5
18 2 -10 2 -26 0 -35z m1943 4 c0 -10 -4 -15 -10 -12 -5 3 -10 18 -10 33 0 21
2 24 10 12 5 -8 10 -23 10 -33z m729 -34 l-2 -78 -10 62 c-9 56 -6 93 8 93 3
0 4 -35 4 -77z m-1103 21 c4 -29 2 -50 -5 -57 -8 -8 -11 -4 -11 15 0 14 -3 40
-6 57 -4 19 -2 31 4 31 6 0 14 -21 18 -46z m1141 -26 c-2 -13 -4 -3 -4 22 0
25 2 35 4 23 2 -13 2 -33 0 -45z m-199 14 c2 -24 -1 -32 -12 -32 -12 0 -16 10
-16 36 0 45 24 42 28 -4z m29 1 c-3 -10 -5 -4 -5 12 0 17 2 24 5 18 2 -7 2
-21 0 -30z m-2327 -47 c0 -52 -6 -43 -13 18 -3 30 -1 43 4 35 5 -8 9 -32 9
-53z m3940 11 c0 -10 -4 -15 -10 -12 -5 3 -10 18 -10 33 0 21 2 24 10 12 5 -8
10 -23 10 -33z m-1723 -39 c-2 -13 -4 -5 -4 17 -1 22 1 32 4 23 2 -10 2 -28 0
-40z m-768 -13 c0 -5 -6 -1 -14 9 -8 11 -15 27 -15 35 1 17 29 -26 29 -44z
m908 -7 c-2 -13 -4 -3 -4 22 0 25 2 35 4 23 2 -13 2 -33 0 -45z m-840 10 c-3
-7 -5 -2 -5 12 0 14 2 19 5 13 2 -7 2 -19 0 -25z m886 12 c3 -11 1 -18 -4 -14
-5 3 -9 12 -9 20 0 20 7 17 13 -6z m-118 -2 c10 -31 9 -51 -2 -55 -7 -3 -13 2
-13 10 0 9 -5 17 -12 19 -14 5 -3 38 12 38 6 0 13 -6 15 -12z m-714 -68 l-10
-25 0 27 c-1 14 2 35 6 45 7 17 8 17 11 -2 1 -12 -2 -32 -7 -45z m2456 23 c-3
-10 -5 -4 -5 12 0 17 2 24 5 18 2 -7 2 -21 0 -30z m-4267 -35 c0 -45 -3 -59
-11 -51 -10 10 -4 113 7 113 2 0 4 -28 4 -62z m810 23 c0 -16 3 -36 6 -45 3
-9 2 -16 -4 -16 -5 0 -12 20 -14 45 -2 25 0 45 4 45 5 0 8 -13 8 -29z m100 -6
c0 -24 -5 -35 -15 -35 -15 0 -20 26 -9 54 11 28 24 17 24 -19z m-608 -31 c10
-74 9 -189 -1 -199 -5 -6 -11 -19 -14 -30 -3 -11 -5 34 -4 100 0 66 -3 135 -8
154 -6 26 -5 33 6 29 8 -3 17 -26 21 -54z m405 -1 c-3 -10 -5 -4 -5 12 0 17 2
24 5 18 2 -7 2 -21 0 -30z m3499 -40 c-11 -29 -17 -6 -9 33 7 36 8 37 11 11 2
-16 1 -36 -2 -44z m-1626 32 c0 -8 -4 -17 -10 -20 -6 -4 -10 5 -10 20 0 15 4
24 10 20 6 -3 10 -12 10 -20z m-953 -17 c-3 -7 -5 -2 -5 12 0 14 2 19 5 13 2
-7 2 -19 0 -25z m819 -96 c-13 -12 -16 8 -9 69 l8 64 3 -64 c2 -35 1 -66 -2
-69z m1134 93 c0 -14 -2 -25 -4 -25 -2 0 -11 11 -20 25 -16 24 -16 25 4 25 15
0 20 -7 20 -25z m-2805 -25 c12 -19 -12 -10 -31 11 -19 22 -19 22 3 10 12 -6
25 -16 28 -21z m1758 17 c3 -8 1 -20 -4 -28 -6 -10 -9 -7 -9 14 0 29 5 35 13
14z m105 -72 c0 -29 0 -29 -8 -5 -4 14 -8 36 -8 50 -1 23 0 23 8 5 5 -11 8
-33 8 -50z m-48 40 c0 -8 -4 -15 -10 -15 -5 0 -10 7 -10 15 0 8 5 15 10 15 6
0 10 -7 10 -15z m1697 -37 c9 -10 13 -25 9 -33 -11 -29 -36 8 -35 52 1 21 3
29 6 18 3 -11 12 -28 20 -37z m-3476 -1 c-8 -8 -11 -5 -11 9 0 27 14 41 18 19
2 -9 -1 -22 -7 -28z m-434 -49 c-2 -13 -4 -3 -4 22 0 25 2 35 4 23 2 -13 2
-33 0 -45z m614 -9 c-5 -87 -20 -94 -21 -11 0 55 3 73 13 69 8 -2 11 -21 8
-58z m376 -15 c-13 -13 -23 7 -19 38 l6 33 9 -33 c6 -18 7 -35 4 -38z m1113
44 c0 -16 -3 -19 -11 -11 -6 6 -8 16 -5 22 11 17 16 13 16 -11z m57 -55 c-2
-16 -4 -3 -4 27 0 30 2 43 4 28 2 -16 2 -40 0 -55z m-1126 -30 c6 -17 5 -23
-5 -23 -8 0 -16 16 -20 38 -9 56 -5 82 6 42 5 -19 14 -45 19 -57z m1146 50
c-3 -10 -5 -4 -5 12 0 17 2 24 5 18 2 -7 2 -21 0 -30z m1720 -75 c-2 -13 -4
-3 -4 22 0 25 2 35 4 23 2 -13 2 -33 0 -45z m-1607 31 c0 -5 -4 -9 -10 -9 -5
0 -10 7 -10 16 0 8 5 12 10 9 6 -3 10 -10 10 -16z m1197 -71 c-2 -18 -4 -4 -4
32 0 36 2 50 4 33 2 -18 2 -48 0 -65z m383 70 c0 -16 -3 -19 -11 -11 -6 6 -8
16 -5 22 11 17 16 13 16 -11z m-3353 -35 c-3 -10 -5 -4 -5 12 0 17 2 24 5 18
2 -7 2 -21 0 -30z m1608 7 c3 -5 1 -10 -4 -10 -6 0 -11 5 -11 10 0 6 2 10 4
10 3 0 8 -4 11 -10z m-1645 -25 c20 -24 6 -28 -15 -5 -10 11 -13 20 -8 20 6 0
16 -7 23 -15z m-583 -17 c-3 -8 -6 -5 -6 6 -1 11 2 17 5 13 3 -3 4 -12 1 -19z
m653 -31 c0 -5 -6 -4 -14 2 -11 9 -15 9 -19 -1 -3 -7 -6 0 -6 16 -1 28 -1 29
19 11 11 -10 20 -22 20 -28z m47 -19 c-2 -13 -4 -3 -4 22 0 25 2 35 4 23 2
-13 2 -33 0 -45z m-612 41 c11 -17 0 -20 -21 -4 -17 13 -17 14 -2 15 9 0 20
-5 23 -11z m2135 1 c0 -5 -4 -10 -10 -10 -5 0 -10 5 -10 10 0 6 5 10 10 10 6
0 10 -4 10 -10z m207 -37 c-3 -10 -5 -4 -5 12 0 17 2 24 5 18 2 -7 2 -21 0
-30z m283 23 c0 -3 -4 -8 -10 -11 -5 -3 -10 -1 -10 4 0 6 5 11 10 11 6 0 10
-2 10 -4z m806 -34 c-10 -10 -29 15 -21 28 6 9 10 8 17 -4 6 -10 7 -20 4 -24z
m-749 -44 c-2 -13 -4 -3 -4 22 0 25 2 35 4 23 2 -13 2 -33 0 -45z m-2241 6
c-5 -13 -10 -14 -18 -6 -6 6 -8 18 -4 28 5 13 10 14 18 6 6 -6 8 -18 4 -28z
m1934 16 c0 -5 -4 -10 -10 -10 -5 0 -10 5 -10 10 0 6 5 10 10 10 6 0 10 -4 10
-10z m-1834 -97 c8 -8 13 -24 13 -36 -2 -22 -2 -22 -6 1 -2 12 -9 22 -15 22
-6 0 -8 -22 -3 -62 4 -45 3 -59 -4 -48 -6 8 -10 56 -9 105 0 50 3 77 5 61 3
-16 11 -35 19 -43z m848 9 c2 -4 -4 -19 -15 -32 -19 -26 -23 -21 -13 18 6 22
19 29 28 14z m1319 -37 c-3 -9 -8 -14 -10 -11 -3 3 -2 9 2 15 9 16 15 13 8 -4z
m-2817 -22 c-10 -10 -19 5 -10 18 6 11 8 11 12 0 2 -7 1 -15 -2 -18z m3972
-10 c-2 -10 -10 -18 -18 -18 -8 0 -16 8 -18 18 -2 12 3 17 18 17 15 0 20 -5
18 -17z m-3908 -84 c0 -11 -4 -17 -10 -14 -5 3 -10 13 -10 21 0 8 5 14 10 14
6 0 10 -9 10 -21z m2775 -73 c6 -14 5 -18 -5 -14 -17 5 -34 65 -24 87 5 12 9
7 14 -19 4 -19 11 -43 15 -54z m1123 47 c16 -35 15 -43 -3 -43 -9 0 -12 -6 -8
-17 4 -11 3 -14 -5 -9 -13 8 -17 96 -4 96 4 0 13 -12 20 -27z m-1505 10 c2 -5
7 -20 11 -35 5 -23 3 -28 -12 -28 -10 0 -19 6 -19 13 0 6 -2 17 -3 22 -7 28
11 49 23 28z m-2631 -57 c16 -29 -7 -11 -33 27 l-23 32 23 -20 c13 -11 27 -28
33 -39z m438 39 c7 -9 8 -15 2 -15 -5 0 -12 7 -16 15 -3 8 -4 15 -2 15 2 0 9
-7 16 -15z m1510 -14 c0 -17 -4 -33 -10 -36 -6 -4 -10 8 -10 29 0 20 5 36 10
36 6 0 10 -13 10 -29z m120 -81 c-9 -5 -9 -9 -1 -14 6 -4 11 -22 10 -39 l-1
-32 -7 31 c-4 17 -11 36 -15 42 -3 6 -2 13 4 17 5 3 11 30 12 58 l2 52 3 -54
c3 -34 0 -57 -7 -61z m1879 45 c1 -16 -1 -17 -9 -5 -5 8 -9 29 -9 45 1 29 1
29 9 5 4 -14 8 -34 9 -45z m-1192 18 c-3 -10 -5 -4 -5 12 0 17 2 24 5 18 2 -7
2 -21 0 -30z m192 -36 c1 -16 -3 -26 -9 -22 -5 3 -10 27 -9 53 1 38 2 42 9 22
4 -14 8 -38 9 -53z m-1694 38 c32 -32 31 -35 -2 -26 -18 5 -29 15 -31 29 -4
28 1 28 33 -3z m1045 0 c0 -8 -4 -17 -10 -20 -6 -4 -10 5 -10 20 0 15 4 24 10
20 6 -3 10 -12 10 -20z m-571 -57 c1 -16 -3 -28 -8 -28 -13 0 -22 16 -14 24 4
4 7 24 6 44 -2 32 -1 34 7 12 4 -14 8 -37 9 -52z m1123 4 c-7 -2 -12 -10 -12
-18 0 -8 -4 -14 -9 -14 -4 0 -9 24 -9 53 l-2 52 22 -34 c16 -24 19 -36 10 -39z
m699 35 c-8 -8 -11 -7 -11 4 0 20 13 34 18 19 3 -7 -1 -17 -7 -23z m-3166 12
c11 -17 -1 -21 -15 -4 -8 9 -8 15 -2 15 6 0 14 -5 17 -11z m1411 -6 c20 -27
16 -38 -6 -18 -20 18 -26 35 -14 35 4 0 13 -8 20 -17z m361 -35 c-2 -13 -4 -5
-4 17 -1 22 1 32 4 23 2 -10 2 -28 0 -40z m1500 30 c-3 -8 -6 -5 -6 6 -1 11 2
17 5 13 3 -3 4 -12 1 -19z m-1627 -8 c6 -11 9 -20 7 -20 -2 0 -12 9 -22 20
-10 11 -13 20 -7 20 6 0 16 -9 22 -20z m1348 0 c8 -14 10 -34 5 -58 -10 -53
-10 -51 -11 -120 -2 -53 -6 -67 -28 -89 -20 -20 -31 -24 -57 -19 -18 3 -38 14
-44 23 -15 20 -18 153 -3 153 6 0 10 10 10 22 0 12 3 18 6 15 4 -3 9 -44 13
-89 5 -70 9 -83 25 -86 27 -5 36 15 36 81 0 46 3 57 16 57 15 0 16 9 11 65 -6
67 -1 79 21 45z m80 -10 c3 -21 2 -22 -12 -11 -19 16 -21 44 -3 39 6 -3 14
-15 15 -28z m-348 10 c0 -5 -2 -10 -4 -10 -3 0 -8 5 -11 10 -3 6 -1 10 4 10 6
0 11 -4 11 -10z m924 -62 c3 -32 2 -58 -3 -58 -10 0 -24 97 -15 111 9 15 11
10 18 -53z m-2094 42 c0 -5 -2 -10 -4 -10 -3 0 -8 5 -11 10 -3 6 -1 10 4 10 6
0 11 -4 11 -10z m334 -6 c3 -8 2 -12 -4 -9 -6 3 -10 10 -10 16 0 14 7 11 14
-7z m-896 -28 c11 -29 19 -35 52 -41 47 -8 50 -16 14 -40 -24 -15 -25 -21 -19
-61 7 -49 3 -52 -39 -25 -28 19 -29 19 -63 -1 -18 -11 -36 -19 -38 -17 -2 2 0
20 4 39 7 30 4 39 -21 66 l-30 32 42 7 c35 6 44 12 56 41 18 43 27 43 42 0z
m1173 1 c-8 -8 -11 -7 -11 4 0 20 13 34 18 19 3 -7 -1 -17 -7 -23z m90 11 l0
-23 11 23 c15 31 25 28 39 -15 l12 -36 18 24 19 24 0 -27 c0 -21 5 -28 20 -28
27 0 25 -15 -5 -38 -23 -18 -25 -25 -19 -62 4 -24 3 -41 -2 -39 -5 3 -21 11
-36 18 -24 12 -32 12 -55 0 -16 -7 -32 -15 -37 -18 -5 -2 -6 13 -3 35 6 34 3
42 -24 70 l-30 31 41 7 c41 6 42 7 38 41 -2 19 0 35 4 35 4 0 8 -10 9 -22z
m419 12 c0 -5 -4 -10 -10 -10 -5 0 -10 5 -10 10 0 6 5 10 10 10 6 0 10 -4 10
-10z m516 -17 c-10 -10 -19 5 -10 18 6 11 8 11 12 0 2 -7 1 -15 -2 -18z m84
17 c4 0 10 -13 13 -29 3 -16 13 -36 22 -44 22 -23 18 -37 -10 -37 -24 0 -25
-2 -25 -70 0 -63 -2 -70 -20 -70 -18 0 -20 7 -20 70 0 68 -1 70 -25 70 -16 0
-25 6 -25 15 0 11 11 15 41 15 38 0 40 1 37 28 -2 15 -8 26 -13 25 -6 -1 -12
7 -12 19 -1 14 3 18 13 14 9 -3 19 -6 24 -6z m155 0 c3 -5 2 -10 -4 -10 -5 0
-13 5 -16 10 -3 6 -2 10 4 10 5 0 13 -4 16 -10z m-938 -37 c-3 -10 -5 -4 -5
12 0 17 2 24 5 18 2 -7 2 -21 0 -30z m603 17 c0 -5 -2 -10 -4 -10 -3 0 -8 5
-11 10 -3 6 -1 10 4 10 6 0 11 -4 11 -10z m40 -26 c0 -19 -28 -30 -43 -15 -8
8 -6 15 8 25 22 16 35 12 35 -10z m-3440 -14 c6 -11 7 -20 2 -20 -10 0 -32 21
-32 32 0 16 19 8 30 -12z m2230 -85 c0 -98 -1 -105 -20 -105 -18 0 -20 7 -20
85 0 69 3 85 15 85 8 0 15 9 15 20 0 11 2 20 5 20 3 0 5 -47 5 -105z m1545 95
c3 -5 1 -10 -4 -10 -6 0 -11 5 -11 10 0 6 2 10 4 10 3 0 8 -4 11 -10z m281
-67 c-4 -4 -16 -2 -26 5 -19 12 -20 9 -20 -63 0 -71 -1 -75 -22 -75 -17 0 -31
14 -55 58 l-32 57 -1 -57 c0 -45 -3 -58 -15 -58 -12 0 -15 16 -15 85 0 81 1
85 23 85 16 0 29 -13 49 -48 l27 -47 1 48 c0 35 4 47 15 47 8 0 15 9 15 20 0
18 5 15 31 -15 18 -20 29 -39 25 -42z m-1126 47 c0 -11 -4 -20 -10 -20 -5 0
-10 9 -10 20 0 11 5 20 10 20 6 0 10 -9 10 -20z m-1114 -16 c-3 -9 -6 -40 -6
-70 0 -46 -4 -59 -26 -81 -20 -20 -31 -24 -57 -19 -46 9 -57 30 -57 108 0 61
2 68 20 68 17 0 19 -8 22 -67 3 -57 6 -68 22 -71 27 -5 36 15 36 80 0 45 3 57
18 61 31 8 34 7 28 -9z m-1599 -9 c29 -21 37 -65 19 -108 -12 -29 -22 -38 -57
-47 -23 -6 -52 -9 -65 -6 -23 6 -24 10 -24 91 l0 85 53 0 c31 0 61 -6 74 -15z
m190 -65 c28 -92 28 -90 2 -90 -12 0 -23 8 -26 20 -3 13 -14 20 -28 20 -15 0
-26 -8 -30 -20 -6 -20 -45 -29 -45 -10 0 6 10 44 22 86 22 73 23 75 52 72 27
-3 31 -8 53 -78z m113 10 l0 -70 35 0 c24 0 35 -5 35 -15 0 -12 -13 -15 -55
-15 l-55 0 0 85 c0 78 2 85 20 85 18 0 20 -7 20 -70z m150 0 l0 -70 35 0 c24
0 35 -5 35 -15 0 -12 -13 -15 -55 -15 l-55 0 0 85 c0 78 2 85 20 85 18 0 20
-7 20 -70z m230 3 c11 -38 23 -76 26 -85 4 -14 0 -18 -19 -18 -16 0 -26 7 -30
20 -3 12 -14 20 -27 20 -13 0 -24 -8 -27 -20 -3 -13 -14 -20 -29 -20 -26 0
-28 -15 18 133 9 31 16 37 39 37 26 0 30 -5 49 -67z m180 60 c0 -17 -16 -28
-39 -28 -36 0 -36 -20 -1 -35 43 -18 56 -45 36 -76 -28 -41 -106 -44 -106 -4
0 16 5 18 35 13 26 -4 35 -2 35 9 0 8 -16 22 -35 31 -28 13 -35 22 -35 45 0
15 5 33 12 40 13 13 98 17 98 5z m528 -67 c12 -41 22 -79 22 -85 0 -19 -38
-12 -45 9 -4 12 -15 20 -30 20 -14 0 -25 -7 -28 -20 -5 -19 -47 -30 -47 -12 0
6 34 118 45 150 2 6 17 12 32 12 26 0 30 -5 51 -74z m362 54 c0 -16 -5 -19
-29 -14 -43 9 -48 -13 -6 -33 36 -17 53 -49 41 -78 -14 -37 -121 -43 -114 -7
2 10 14 16 33 16 36 1 45 17 17 31 -54 28 -65 54 -35 87 10 11 30 18 55 18 31
0 38 -4 38 -20z m180 5 c0 -9 -9 -15 -25 -15 -24 0 -25 -2 -25 -70 0 -63 -2
-70 -20 -70 -18 0 -20 7 -20 70 0 68 -1 70 -25 70 -16 0 -25 6 -25 15 0 12 14
15 70 15 56 0 70 -3 70 -15z m640 -15 c0 -27 3 -30 30 -30 27 0 30 3 30 30 0
23 4 30 20 30 18 0 20 -7 20 -85 0 -78 -2 -85 -20 -85 -16 0 -20 7 -20 35 0
32 -2 35 -30 35 -28 0 -30 -3 -30 -35 0 -28 -4 -35 -20 -35 -18 0 -20 7 -20
85 0 78 2 85 20 85 16 0 20 -7 20 -30z m290 10 c13 -13 20 -33 20 -61 0 -54
-13 -75 -54 -89 -28 -9 -40 -8 -64 4 -34 18 -42 33 -42 84 0 50 32 82 82 82
25 0 45 -7 58 -20z m370 0 c0 -16 -5 -19 -29 -14 -43 9 -48 -13 -6 -33 36 -17
53 -49 41 -78 -14 -37 -121 -43 -114 -7 2 10 14 16 33 16 36 1 45 17 17 31
-54 28 -65 54 -35 87 10 11 30 18 55 18 31 0 38 -4 38 -20z m345 12 c-2 -3 2
-14 10 -26 22 -31 18 -81 -9 -112 -43 -50 -125 -31 -141 33 -7 31 11 90 33
103 16 9 117 11 107 2z m-3795 -113 c0 -16 -16 -10 -40 16 l-24 25 32 -16 c18
-8 32 -20 32 -25z m4062 -50 l-10 -44 -1 55 c-1 39 2 51 10 43 7 -7 8 -24 1
-54z m-3187 -97 c-9 -9 -25 19 -24 43 0 16 2 15 15 -8 9 -16 13 -32 9 -35z
m938 38 c-3 -11 -7 -20 -9 -20 -2 0 -8 9 -14 20 -9 17 -8 20 9 20 14 0 18 -5
14 -20z m1401 4 c3 -8 2 -12 -4 -9 -6 3 -10 10 -10 16 0 14 7 11 14 -7z m527
-34 c5 0 9 -9 9 -21 0 -42 -25 -12 -26 32 -1 24 0 32 3 17 2 -16 9 -28 14 -28z
m-3492 3 c0 -34 -1 -36 -11 -16 -6 12 -8 29 -5 37 11 27 17 18 16 -21z m3021
-15 c0 -62 -5 -60 -14 5 -5 31 -4 47 3 47 7 0 11 -22 11 -52z m260 32 c6 -11
7 -20 2 -20 -10 0 -32 21 -32 32 0 16 19 8 30 -12z m314 4 c4 -9 4 -19 2 -21
-8 -8 -26 8 -26 23 0 19 16 18 24 -2z m-480 -33 c-6 -6 -24 19 -24 34 1 6 7 1
15 -9 8 -11 12 -22 9 -25z m-1104 9 c0 -5 -2 -10 -4 -10 -3 0 -8 5 -11 10 -3
6 -1 10 4 10 6 0 11 -4 11 -10z m-1515 -10 c4 -6 11 -8 16 -5 5 4 9 -11 8 -32
l-1 -38 -10 30 c-6 17 -18 35 -27 42 -10 8 -11 12 -4 13 6 0 15 -5 18 -10z
m1770 1 c3 -5 1 -12 -5 -16 -5 -3 -10 1 -10 9 0 18 6 21 15 7z m165 -10 c0 -6
-4 -13 -10 -16 -5 -3 -10 1 -10 9 0 9 5 16 10 16 6 0 10 -4 10 -9z m-1590 -25
c0 -14 -5 -28 -11 -31 -15 -10 -18 -4 -12 28 7 34 23 36 23 3z m-545 -35 c-8
-8 -35 22 -35 38 0 12 5 10 20 -9 10 -14 17 -27 15 -29z m2873 25 c3 -13 -1
-17 -14 -14 -11 2 -20 11 -22 22 -3 13 1 17 14 14 11 -2 20 -11 22 -22z m802
-1 c0 -14 -4 -25 -10 -25 -5 0 -10 11 -10 25 0 14 5 25 10 25 6 0 10 -11 10
-25z m37 -12 c-3 -10 -5 -4 -5 12 0 17 2 24 5 18 2 -7 2 -21 0 -30z m-1703 5
c11 -18 0 -39 -12 -23 -4 6 -13 10 -19 10 -7 0 -13 3 -13 8 0 4 0 12 0 18 0
16 31 7 44 -13z m1413 -10 c-3 -7 -5 -2 -5 12 0 14 2 19 5 13 2 -7 2 -19 0
-25z m-1671 -3 c-3 -9 -11 -13 -16 -10 -8 5 -7 11 1 21 14 18 24 11 15 -11z
m164 4 c0 -6 -4 -7 -10 -4 -5 3 -10 11 -10 16 0 6 5 7 10 4 6 -3 10 -11 10
-16z m-1650 -10 c0 -6 -4 -7 -10 -4 -5 3 -10 11 -10 16 0 6 5 7 10 4 6 -3 10
-11 10 -16z m2140 -10 c0 -5 -4 -9 -10 -9 -5 0 -10 7 -10 16 0 8 5 12 10 9 6
-3 10 -10 10 -16z m-3273 -26 c-3 -10 -5 -4 -5 12 0 17 2 24 5 18 2 -7 2 -21
0 -30z m4670 -5 c-3 -8 -6 -5 -6 6 -1 11 2 17 5 13 3 -3 4 -12 1 -19z m-25
-90 c-5 -31 -5 -32 -14 -8 -7 20 0 36 18 40 0 0 -2 -14 -4 -32z m54 -46 c-9
-8 -14 0 -21 33 l-6 30 16 -28 c9 -16 14 -31 11 -35z m44 -59 c0 -7 -4 -13 -9
-13 -10 0 -21 25 -21 48 1 15 3 14 15 -2 8 -11 15 -26 15 -33z m50 -214 c0
-11 -4 -17 -10 -14 -5 3 -10 13 -10 21 0 8 5 14 10 14 6 0 10 -9 10 -21z
m-4975 -46 c-4 -32 -11 -62 -16 -67 -4 -5 -6 6 -3 26 4 21 2 38 -5 42 -15 10
-14 22 5 40 24 25 26 20 19 -41z m4972 -50 c-3 -10 -5 -4 -5 12 0 17 2 24 5
18 2 -7 2 -21 0 -30z m0 -140 c-3 -10 -5 -4 -5 12 0 17 2 24 5 18 2 -7 2 -21
0 -30z m-5040 -182 c-4 -21 -37 54 -36 83 0 14 7 7 20 -23 11 -25 18 -52 16
-60z m99 -39 c-12 -12 -18 8 -10 35 l8 28 4 -28 c2 -16 1 -31 -2 -35z m14 -65
c0 -18 -2 -19 -10 -7 -13 20 -13 43 0 35 6 -3 10 -16 10 -28z m-84 -185 c-12
-11 -18 7 -10 30 l8 23 4 -23 c2 -13 1 -26 -2 -30z m5094 -84 c0 -18 -2 -20
-9 -8 -6 8 -7 18 -5 22 9 14 14 9 14 -14z m-5083 -55 c-3 -10 -5 -4 -5 12 0
17 2 24 5 18 2 -7 2 -21 0 -30z m5013 -69 c0 -8 -4 -12 -10 -9 -5 3 -10 10
-10 16 0 5 5 9 10 9 6 0 10 -7 10 -16z m-4773 -231 c-3 -10 -5 -4 -5 12 0 17
2 24 5 18 2 -7 2 -21 0 -30z m4507 -106 c-3 -9 -10 -17 -15 -17 -11 0 -12 34
-2 44 11 11 24 -9 17 -27z m-4440 -63 c7 -19 -2 -37 -15 -29 -12 8 -12 45 0
45 5 0 12 -7 15 -16z m4363 -76 c-2 -13 -4 -5 -4 17 -1 22 1 32 4 23 2 -10 2
-28 0 -40z m50 -65 c-3 -10 -5 -2 -5 17 0 19 2 27 5 18 2 -10 2 -26 0 -35z
m-177 -144 c0 -5 -4 -9 -10 -9 -5 0 -10 7 -10 16 0 8 5 12 10 9 6 -3 10 -10
10 -16z m-410 -81 c0 -6 8 -20 17 -30 11 -13 13 -22 6 -29 -7 -7 -13 -6 -20 3
-16 20 -25 68 -13 68 5 0 10 -5 10 -12z m-2900 -66 c0 -12 -3 -12 -15 -2 -8 7
-15 22 -15 34 1 21 1 21 15 2 8 -11 15 -26 15 -34z m3017 -4 c-3 -8 -6 -5 -6
6 -1 11 2 17 5 13 3 -3 4 -12 1 -19z"/>
<path d="M2970 3891 c0 -58 6 -111 16 -142 16 -47 37 -70 51 -56 7 8 -46 269
-58 282 -5 5 -9 -29 -9 -84z"/>
<path d="M1090 3295 c0 -51 2 -55 23 -55 31 0 47 18 47 55 0 37 -16 55 -47 55
-21 0 -23 -4 -23 -55z"/>
<path d="M1306 3312 c-8 -24 -3 -37 12 -31 4 2 5 15 2 29 l-6 25 -8 -23z"/>
<path d="M1797 3300 c-4 -15 0 -20 13 -20 13 0 17 5 13 20 -3 11 -9 20 -13 20
-4 0 -10 -9 -13 -20z"/>
<path d="M2510 3327 c0 -8 -3 -22 -6 -31 -4 -11 -1 -16 10 -16 13 0 15 6 10
28 -8 33 -14 41 -14 19z"/>
<path d="M3950 3330 c-26 -48 9 -108 48 -84 36 23 22 104 -18 104 -11 0 -24
-9 -30 -20z"/>
<path d="M4672 3338 c-17 -17 -15 -73 3 -88 22 -18 48 -8 59 22 19 53 -27 101
-62 66z"/>
<path d="M3825 4706 c-8 -69 1 -339 12 -385 5 -20 3 -23 -10 -18 -21 8 -41
-26 -34 -59 2 -13 0 -24 -4 -24 -16 0 -9 -47 9 -62 26 -23 50 -28 76 -18 29
10 39 38 30 75 -6 23 -10 26 -35 21 -32 -6 -34 -1 -18 41 8 22 12 24 19 13 8
-12 10 -11 10 6 0 11 -5 25 -12 32 -9 9 -9 18 0 37 9 20 9 32 -1 53 -9 18 -11
41 -6 72 10 58 0 216 -16 255 -12 29 -12 28 -20 -39z m65 -506 c0 -5 -4 -10
-10 -10 -5 0 -10 5 -10 10 0 6 5 10 10 10 6 0 10 -4 10 -10z"/>
<path d="M3006 2540 c-27 -11 -64 -34 -82 -51 -32 -31 -32 -32 -16 -57 16 -25
16 -25 -6 -13 -14 8 -22 8 -22 1 0 -5 -7 -10 -15 -10 -17 0 -55 -69 -55 -99 0
-15 5 -19 16 -14 26 10 13 -40 -13 -52 -20 -8 -23 -17 -23 -61 0 -62 32 -173
60 -206 11 -12 19 -19 20 -14 0 5 10 -6 23 -25 30 -46 111 -86 194 -95 61 -6
68 -5 85 16 10 12 18 17 18 11 0 -12 29 -15 54 -5 9 3 16 13 16 21 0 8 4 11
10 8 24 -15 80 47 80 90 0 11 -11 6 -37 -19 -74 -68 -83 -72 -153 -71 -41 1
-77 8 -98 18 -41 22 -80 81 -98 149 -9 38 -26 67 -54 97 -42 44 -48 59 -28 79
9 9 16 8 30 -5 10 -9 18 -22 18 -29 0 -7 3 -15 8 -17 4 -3 8 32 9 77 1 67 5
89 25 120 32 52 88 116 102 116 6 0 17 4 24 9 12 7 12 12 1 30 -17 26 -30 26
-93 1z"/>
<path d="M3340 2540 c-13 -23 -49 -26 -88 -6 -29 14 -110 12 -126 -4 -7 -7 4
-10 29 -10 23 0 55 -9 74 -21 18 -11 40 -18 47 -15 10 4 14 -2 14 -18 0 -13 7
-29 14 -36 8 -6 20 -28 27 -48 22 -71 29 -57 29 61 0 64 -2 117 -5 117 -2 0
-9 -9 -15 -20z"/>
<path d="M638 2532 c22 -11 36 -27 43 -52 16 -53 8 -572 -9 -592 -10 -13 -10
-17 4 -22 24 -9 24 -9 25 32 l1 37 10 -37 c9 -36 12 -38 49 -38 21 0 39 5 39
10 0 6 -6 10 -14 10 -7 0 -25 9 -40 21 l-26 20 0 270 c0 164 4 268 9 264 5 -3
15 -22 22 -43 6 -20 28 -79 47 -131 27 -71 38 -89 43 -75 6 14 8 11 8 -14 1
-18 8 -40 16 -48 8 -9 15 -30 15 -49 0 -34 50 -178 73 -210 12 -15 19 -2 59
101 25 66 54 144 64 174 24 75 46 131 88 220 l35 75 1 -148 c0 -122 3 -149 15
-153 8 -4 15 -13 15 -22 0 -8 14 -37 30 -63 23 -35 29 -54 24 -73 -10 -41 -24
-30 -24 19 0 25 -4 45 -10 45 -5 0 -10 -18 -10 -40 0 -22 -4 -40 -9 -40 -5 0
-6 19 -4 43 4 31 1 46 -11 56 -14 12 -16 5 -16 -71 0 -86 -15 -128 -46 -128
-8 0 -14 -4 -14 -10 0 -6 55 -10 145 -10 90 0 145 4 145 10 0 6 -10 10 -23 10
-13 0 -32 6 -43 14 -18 14 -19 29 -19 311 0 322 -2 309 58 322 46 10 30 23
-29 23 l-56 0 7 -30 c5 -23 3 -30 -9 -30 -12 0 -14 7 -9 30 3 19 1 30 -6 30
-6 0 -11 -5 -11 -11 0 -8 -4 -8 -12 -1 -7 5 -31 9 -54 9 l-40 -2 -38 -110
c-41 -117 -117 -317 -123 -325 -2 -2 -8 2 -13 10 -7 11 -10 0 -11 -35 0 -27
-5 -61 -9 -75 -4 -14 -6 17 -4 74 3 96 2 102 -35 190 -21 50 -49 119 -62 154
-13 34 -27 62 -31 62 -5 0 -9 -42 -9 -92 -1 -69 -4 -83 -9 -53 -3 22 -4 77 -2
123 l5 82 -119 -1 c-117 0 -118 -1 -86 -17z m639 -139 c-2 -21 -4 -6 -4 32 0
39 2 55 4 38 2 -18 2 -50 0 -70z m-359 -193 c0 -22 -1 -22 -8 5 -4 17 -8 39
-8 50 0 16 2 15 8 -5 4 -14 8 -36 8 -50z"/>
<path d="M5156 2444 c-16 -26 -51 -68 -78 -95 -54 -54 -58 -66 -25 -65 19 1
22 -5 25 -41 2 -24 7 -43 13 -43 5 0 9 -22 9 -50 0 -27 -4 -50 -10 -50 -6 0
-10 -32 -10 -75 0 -79 12 -116 49 -149 24 -22 81 -29 88 -11 2 7 12 11 22 8
22 -6 61 40 61 71 -1 19 -2 19 -21 -6 -35 -48 -67 -34 -71 30 0 15 -4 5 -8
-23 l-7 -50 -1 57 c-1 31 3 60 8 63 6 4 10 59 10 131 0 74 -4 123 -9 120 -15
-9 -24 52 -13 82 6 15 13 53 15 85 7 71 -7 74 -47 11z m-35 -207 c-13 -13 -15
1 -4 30 7 17 8 17 11 -1 2 -10 -1 -23 -7 -29z"/>
<path d="M1655 2340 c-4 -6 9 -17 28 -25 19 -8 38 -22 42 -32 5 -10 10 -83 12
-163 5 -175 -7 -233 -49 -238 -45 -5 -65 26 -73 114 -9 95 -1 242 16 289 17
47 3 63 -37 42 -58 -30 -99 -104 -110 -199 -12 -106 39 -228 110 -262 42 -20
128 -21 164 -2 57 30 103 102 102 163 -1 215 -15 252 -116 303 -42 22 -79 26
-89 10z m145 -389 c-1 -10 -6 -7 -15 9 -19 33 -18 50 0 26 8 -11 15 -27 15
-35z"/>
<path d="M2513 2340 c-13 -5 -23 -14 -23 -20 0 -5 -7 -10 -16 -10 -65 0 -114
-210 -78 -332 29 -96 114 -150 199 -127 47 13 115 79 115 111 0 21 -1 21 -27
-4 -35 -33 -64 -41 -96 -29 -38 15 -80 84 -83 137 -1 25 -5 58 -9 74 -10 44
12 134 39 159 42 39 76 -1 79 -95 2 -46 1 -49 -25 -52 -20 -2 -28 -9 -28 -23
0 -17 7 -19 63 -19 34 0 72 3 85 6 21 6 23 11 17 48 -8 54 -54 148 -68 143 -7
-3 -21 4 -33 15 -25 22 -80 31 -111 18z m-32 -108 c-9 -25 -9 -24 -10 18 0 36
2 41 10 27 7 -12 7 -27 0 -45z"/>
<path d="M3530 2313 c-71 -61 -97 -176 -70 -306 9 -46 21 -68 54 -103 l43 -44
79 0 c77 0 82 1 121 34 30 27 45 50 61 101 26 78 27 103 6 192 -28 121 -80
165 -190 161 -58 -2 -70 -6 -104 -35z m150 -18 c37 -45 32 -364 -6 -392 -29
-21 -53 -15 -74 20 -17 28 -20 50 -20 175 0 170 11 212 58 212 16 0 35 -7 42
-15z"/>
<path d="M4380 2339 c-14 -5 -37 -22 -52 -36 l-28 -27 0 27 c0 15 -3 27 -7 28
-5 0 -19 2 -33 4 -14 2 -39 1 -55 -1 -25 -5 -31 -11 -33 -33 -1 -16 5 -34 13
-41 9 -8 21 -22 26 -33 9 -16 8 -18 -9 -13 -19 6 -20 1 -21 -139 -1 -80 -6
-157 -11 -171 -16 -41 -13 -44 45 -44 52 0 55 1 55 25 0 14 5 25 10 25 6 0 10
-6 9 -12 -3 -23 1 -38 9 -38 4 0 6 80 4 178 l-3 179 26 32 c15 17 34 31 44 31
37 0 41 -19 41 -199 0 -166 -1 -176 -22 -198 l-21 -23 106 0 c59 0 107 3 107
8 0 4 -9 13 -19 19 -17 11 -19 28 -23 190 -4 183 -11 218 -51 252 -21 17 -77
23 -107 10z m-111 -163 c1 -42 -5 -29 -12 24 -4 30 -3 38 3 25 5 -11 9 -33 9
-49z m184 -153 c3 -5 2 -26 -3 -48 l-7 -40 -12 29 c-6 16 -9 37 -6 47 6 19 20
25 28 12z"/>
<path d="M4768 2334 l-38 -16 -2 -67 -1 -66 -6 59 c-5 47 -8 56 -17 45 -7 -8
-15 -29 -19 -48 -5 -22 -10 -29 -15 -21 -13 22 -33 -100 -27 -165 11 -114 58
-184 138 -205 75 -20 148 22 195 112 20 38 3 35 -39 -7 -19 -19 -42 -35 -51
-35 -55 0 -109 65 -122 149 l-7 41 112 0 c129 0 129 0 111 84 -16 77 -77 146
-135 152 -24 2 -55 -3 -77 -12z m96 -64 c9 -22 16 -59 16 -81 l0 -40 -57 3
-58 3 0 51 c1 100 67 143 99 64z"/>
<path d="M1912 2326 c-3 -6 0 -12 7 -14 14 -5 57 -88 81 -157 9 -27 41 -110
70 -183 42 -105 56 -130 65 -120 7 7 46 105 86 217 52 143 82 212 101 231 33
33 24 40 -52 40 -58 0 -69 -12 -35 -34 20 -13 24 -22 19 -44 -10 -45 -66 -206
-74 -215 -4 -5 -16 15 -26 45 -9 29 -28 73 -41 97 -26 50 -31 109 -8 117 26
11 17 33 -12 31 -27 -2 -28 -5 -26 -52 l3 -50 -13 45 -12 45 -63 5 c-35 3 -66
1 -70 -4z"/>
<path d="M5246 2314 c-8 -21 -7 -22 29 -26 25 -2 31 1 33 20 3 18 -1 22 -26
22 -18 0 -32 -6 -36 -16z"/>
<path d="M3931 1984 c-36 -46 -21 -115 29 -133 75 -26 129 79 73 141 -25 28
-77 24 -102 -8z"/>
<path d="M2838 1639 c-13 -7 -17 -21 -16 -49 1 -35 3 -38 20 -29 15 8 16 14 7
30 -8 16 -7 25 7 40 18 21 10 25 -18 8z"/>
<path d="M3030 1594 c-6 -14 -13 -43 -16 -64 -5 -32 -3 -41 10 -46 26 -10 40
10 25 35 -11 16 -11 23 -1 33 15 15 16 68 2 68 -6 0 -15 -12 -20 -26z"/>
<path d="M2926 1541 c-29 -42 -59 -56 -87 -40 -24 13 -29 11 -23 -6 4 -11 21
-14 70 -12 79 3 106 22 95 63 -11 41 -25 39 -55 -5z"/>
<path d="M3085 1499 c-10 -15 1 -23 20 -15 9 3 13 10 10 16 -8 13 -22 13 -30
-1z"/>
<path d="M2514 1416 c-29 -13 -51 -43 -39 -54 2 -3 11 1 19 7 20 16 53 5 61
-20 4 -11 4 -44 0 -72 -4 -29 -5 -50 -2 -47 3 3 19 22 36 44 67 84 16 181 -75
142z"/>
<path d="M2751 1399 c-24 -26 -45 -110 -37 -150 22 -110 91 -146 151 -79 30
33 29 176 -1 217 -26 34 -62 46 -45 15 6 -12 11 -71 11 -132 0 -89 -3 -112
-15 -116 -8 -4 -23 0 -31 7 -14 12 -16 32 -12 136 3 68 4 123 2 123 -2 0 -12
-9 -23 -21z"/>
<path d="M3023 1399 c-4 -15 -8 -17 -14 -8 -14 23 -39 -54 -39 -119 0 -76 30
-125 77 -130 49 -5 71 13 88 71 23 78 -1 197 -40 197 -12 0 -15 -16 -15 -79 0
-44 5 -92 10 -107 12 -30 -9 -74 -34 -74 -21 0 -26 24 -26 135 0 81 3 107 16
119 14 15 14 16 -1 16 -9 0 -19 -9 -22 -21z"/>
<path d="M3298 1409 c-16 -9 -18 -26 -18 -127 0 -79 -4 -122 -12 -130 -9 -9 0
-12 42 -12 42 0 51 3 42 12 -8 8 -12 47 -12 109 0 97 -7 159 -19 159 -3 0 -14
-5 -23 -11z"/>
<path d="M2490 1188 l-31 -43 71 -3 c76 -3 100 6 100 39 0 16 -7 18 -47 16
-40 -2 -48 1 -47 16 3 28 -12 20 -46 -25z"/>
<path d="M2948 1064 c-3 -5 -11 -27 -18 -49 -24 -78 -33 -85 -108 -85 l-67 -1
26 -22 c14 -12 40 -33 58 -47 l34 -26 -23 -68 c-12 -37 -20 -69 -18 -72 3 -2
29 14 58 36 30 22 56 40 59 40 3 0 30 -16 59 -36 29 -20 55 -34 58 -31 4 3 -1
27 -10 53 -9 26 -16 56 -16 65 0 11 25 37 57 61 l57 43 -70 3 c-38 2 -73 7
-79 13 -5 5 -19 38 -31 71 -11 34 -23 58 -26 52z"/>
<path d="M4438 927 c-27 -6 -48 -15 -48 -21 0 -7 -3 -7 -8 0 -5 9 -54 8 -192
-2 -102 -7 -197 -14 -211 -14 -21 0 -28 -7 -37 -32 -10 -33 -10 -33 -11 -5 -1
24 -5 27 -33 27 -63 0 -329 -60 -465 -105 -150 -49 -360 -146 -369 -170 -4 -8
-13 -15 -20 -15 -8 0 -32 -11 -53 -25 -40 -27 -66 -25 -88 6 -7 9 -24 20 -38
23 -14 4 -25 11 -25 16 0 24 -269 140 -440 189 -214 61 -536 113 -552 88 -4
-6 -8 -49 -8 -94 l0 -82 58 -6 c323 -38 667 -139 822 -241 28 -19 56 -34 60
-34 5 0 44 -34 86 -75 42 -41 83 -75 90 -75 7 0 22 13 33 29 12 16 50 53 86
81 36 29 65 59 65 68 0 12 3 14 8 5 6 -10 25 -4 73 22 220 116 563 206 841
220 62 3 132 8 155 11 l42 5 4 67 3 67 2 -69 2 -69 51 6 c29 4 54 9 56 11 3 3
-2 26 -11 52 -18 54 -20 78 -6 69 6 -3 10 -15 10 -27 0 -14 5 -18 16 -14 13 5
14 -1 8 -40 l-7 -47 49 8 c27 4 51 9 54 12 9 8 12 193 3 192 -4 -1 -29 -6 -55
-12z m-21 -49 c-3 -7 -5 -2 -5 12 0 14 2 19 5 13 2 -7 2 -19 0 -25z m40 -95
c-3 -10 -5 -4 -5 12 0 17 2 24 5 18 2 -7 2 -21 0 -30z m-690 -35 c-2 -13 -4
-3 -4 22 0 25 2 35 4 23 2 -13 2 -33 0 -45z"/>
</g>
</svg>
